/* XPM */
static char *_e7d437284424873ddd9798ffc6c1ccauaUqClzfnPPborpi[] = {
/* columns rows colors chars-per-pixel */
"64 64 9 1 ",
"  c None",
". c black",
"X c #272727",
"o c #2B50AA",
"O c #366CFB",
"+ c #FF858D",
"@ c #FF9FE5",
"# c #FFD4D4",
"$ c white",
/* pixels */
"++++#OOO####XXXXXXXXXX####oooooooooo#####XXXXXXX####OOOO###+###+",
"+++##OOOXXXXXXXXXXX#######oooooooooo#####o###ooXXX###OOOO##+++++",
"+++#OOO#XXXXXX#####o#######ooooooooo####oo##ooooXXXXX##OO###++++",
"++++OOOXXXXXX##o###ooo#####ooooooooo####oo##oooooXXXXX##OO###+++",
"+++OOO#XXXXX$oooo###ooo####ooooooooo###ooo#oooooooXXXX##OOOO#+++",
"+#OO##XXXX##oooooo##oooo###ooooooooo##oooo#ooooooooXXXX##OOO#+++",
"OOOO#XXX###oooooooo##oooo##ooooooooo##ooooooooooooooXXXX##OOO+##",
"OOO#XXX###oooooooooooooooo#ooooooooo##ooo#ooooooooooo#XX##OOO###",
"OOOXXXX###ooooooooooo#oooo##ooooooo###ooo#oooooooooo###XX###OO##",
"##XXXX####ooooooooooo##ooo###ooooo####ooo#ooooooooo####XX###OOO#",
"##XXXX#####oooooooooo###oo####ooo#####oo##ooooooooo#####XXX#OOOO",
"#XXXXXo#####ooooooooo###oo#####o######oo###ooooooo######XXXX#OOO",
"#XXXXXooo####oooooooo####o.####..#####o####oooooo####oo#XXXXX##O",
"#XXXX#oooo####ooooooo####...##...#####..####ooo#####ooo#XXXXXX##",
"#XXX##ooooo####oooooo###....#.....###...####.#####oooo##XXXXXX##",
"#XXX###ooooo########.###...##.....##....###..####ooooo###XXXXX##",
"#XXX###oooooo#######..###..###....##....##...####ooooo####XXXX##",
"#XX#####ooooo#######....##.####...##...#.....###oooooo#####XXX##",
"XXX#######oooo######.....######..###..##....####ooooo#######XX##",
"XX#########ooo###.##.....######@@#######....####ooooo########X##",
"X############o.....##....####@@@@#######....###ooooo#########XX#",
"X#oo##########.......###@@####@@@######.@..##.#oooo###########X#",
"Xoooooooo#######......##@@@##@@@@@####@@@###...oo####ooooooo#XX#",
"Xooooooooo#######....###@@@@@@@@@@@@@@@@##.......###oooooooo#XX#",
"Xoooooooooo##############@@@@@@@@@@@@@@@###...#####ooooooooo#XX#",
"Xooooooooooo###...#######@@@@@@@@@@@@@@###########ooooooooooXXXX",
"Xoooooooooooo#......###@@@@@@@@@@@@@@@@####...####ooooooooooXXXX",
"XXooooooooooo.........@@@@@@@@@@@@@@@@@@##.......oooooooooooXXXX",
"Xooooooooooo#.......#@@@@@@@@@@@@@@@@@@@@.......ooooooooooooXXXX",
"Xoooooooooo####...####@@@@@@@@@@@@@@@@@@@......##oooooooooooXXXX",
"Xoooooooooo#######.####@@@@@@@@@@@@@@@@@###...####ooooooooooXXXX",
"X#ooo#######o####....###@@@@@@@@@@@@@@@##..#######ooooooooooXXX#",
"X#########ooooooo....###@@@@@@@@@@@@@@@##....######oooooooooXXX#",
"X######ooooooooo....###@@@@@@@@@@@@@@@@##....###############XX##",
"XX##ooooooooooo########@@@@@@@@@@@@@@@@@#....oooooooo######XXX##",
"XXXooooooooo#######.....@####@@@@@@##@@@####..ooooooooo####XX###",
"XXXooooooo#########....###.###@@@@#####@...####oooooooooo##XX###",
"XXXX###############....##...###@@######....######ooooooooXXXX###",
"XXXX########ooooo#o...##....###..###.#......#######ooooooXXXX###",
"XXXX#######oooooooo.####....##....#...##...oooooooo#######XXX###",
"#XXX#####oooooooooo#####...##.....##..#####oooooooooo######XX###",
"#XXXX###ooooooooooo#####..####....##...#####ooooooooooo####X####",
"##XXX#ooooooooooooo#####o.####...####..#####oooooooooooo###X####",
"###XXoooooooooooooo###ooo#####oo#####.oo####ooooooooooooooXX####",
"###XXoooooooooooooo##oooo#####ooo#####ooo###ooooooooooooo#XX##OO",
"###XX#oooooooooooo oooooo####ooooo####oooo##oooooooooooooXXX#OOO",
"O##XXXXoooooooooo#ooooooo###ooooooo###oooooo##ooooooooooXXXXOOOO",
"O##XXXXXoooooooo##ooooooo##oooooooo###oooooo###oooooooXXXXXXOOOO",
"O##XXXXXXooooo####ooooooo##ooooooooo##ooooooo###oooooXXXXXXXOOO#",
"OO#XXXXXXoooo#####ooooo###oooooooooo##ooooooo####ooooXXXXXXOOOO#",
"OO##XXXXX#oo#####ooooo####oooooooooo#####ooooo####oooXXXXX#OOOO#",
"OOO##XXXX########oooo######ooooooooo#######ooo#####XXXXXX##OOO##",
"#OOOO##XXX#######ooo######oooooooooo########XXX###XXXXXX#OOO####",
"##OOOO###XX######oo#######oooooooooo########XXXXXXXXXXX#OOO#####",
"##OOOOO##XXXX##XXX########oooooooooo#########XXXXXXXXXOOOOO#####",
"###OOOO###XXXXXXXX########oooooooooo#########XXXXXXXX#OOOOO#####",
"###OOOO####XXXXXXX########oooooooooo########XXXXXXXX##OOOO######",
"###OOOOOO###XXXXXXXX######oooooooooo######XXXXXXXXX###OO##++++++",
"++++#OOOOO###XXXXXXXXXXXXXooooooooooXXXX#XXXXXXX#####O#####+++++",
"+++####OOOO##XXXX###XXXXXXXXXXXXXXXXXXXXXXX########OOO#####+++++",
"+++####OOOOO###########XXXXXXXXXXXXXXXX###########OOOO######++++",
"++#####OOOOO############XXXXXXXXXXXXXX###########OOOO#######++++",
"+++#####OOOOO#############XXXXXXXXXX############OOOOO######+++++",
"+++++####OOOO###############XXXXXXX#############OOO######+++++++"
};
