/* XPM */
static char *ecedc42778534a24eb58f5465d191678A1UnmUd6lQ8biQ1y[] = {
/* columns rows colors chars-per-pixel */
"64 64 254 2 ",
"   c #022DB8",
".  c #0535BE",
"X  c #0836B5",
"o  c #0932AD",
"O  c #012B97",
"+  c #0542B9",
"@  c #022BC3",
"#  c #042DCD",
"$  c #0528C8",
"%  c #0433C4",
"&  c #033BC4",
"*  c #0234CB",
"=  c #043BCC",
"-  c #0A3CCC",
";  c #0A36C8",
":  c #042ED2",
">  c #042EDA",
",  c #0334D4",
"<  c #0934D2",
"1  c #033CD4",
"2  c #093DD5",
"3  c #0435DA",
"4  c #033CDB",
"5  c #0A3CDC",
"6  c #0A34D9",
"7  c #043DE4",
"8  c #0A3FE3",
"9  c #073CEB",
"0  c #092CE0",
"q  c #0443CB",
"w  c #0943CB",
"e  c #054BCC",
"r  c #094BCD",
"t  c #0644C4",
"y  c #1252CE",
"u  c #0443D4",
"i  c #0A44D3",
"p  c #044AD4",
"a  c #0B4AD4",
"s  c #0443DB",
"d  c #0A43DC",
"f  c #044BDB",
"g  c #0A4CDB",
"h  c #1248D9",
"j  c #0A54D4",
"k  c #0C5BD4",
"l  c #0553DC",
"z  c #0B53DC",
"x  c #045BDD",
"c  c #0B5BDC",
"v  c #0452D7",
"b  c #1154DC",
"n  c #135CDD",
"m  c #1058D6",
"M  c #0A4FCC",
"N  c #0C63DD",
"B  c #0968DD",
"V  c #1463DC",
"C  c #1569DB",
"Z  c #1674DA",
"A  c #207ADB",
"S  c #0444E2",
"D  c #0A45E3",
"F  c #044CE3",
"G  c #0A4DE4",
"H  c #0344EA",
"J  c #054CEA",
"K  c #0B4CEA",
"L  c #0B43EB",
"P  c #0453E4",
"I  c #0A53E4",
"U  c #045CE4",
"Y  c #0B5CE4",
"T  c #0453EB",
"R  c #0A54EB",
"E  c #055BEB",
"W  c #0B5CEB",
"Q  c #135BE4",
"!  c #1159E9",
"~  c #0B49F2",
"^  c #0453F2",
"/  c #0954F3",
"(  c #045CF2",
")  c #0B5CF2",
"_  c #075AF9",
"`  c #1152ED",
"'  c #0664E4",
"]  c #0C64E4",
"[  c #056AE4",
"{  c #0C6BE4",
"}  c #0563EC",
"|  c #0B64EC",
" . c #056BEC",
".. c #0B6BEB",
"X. c #1364E3",
"o. c #136BE4",
"O. c #1163EC",
"+. c #126BEB",
"@. c #196BE6",
"#. c #0D73E4",
"$. c #0B73EC",
"%. c #0C7CEC",
"&. c #0877E9",
"*. c #1273E4",
"=. c #147CE5",
"-. c #1274EB",
";. c #1B74EB",
":. c #137BED",
">. c #1B7CEC",
",. c #1A79E4",
"<. c #0464F3",
"1. c #0B64F3",
"2. c #056BF4",
"3. c #0B6CF3",
"4. c #0C64FB",
"5. c #046CFA",
"6. c #0B6DFC",
"7. c #0564F9",
"8. c #1265F3",
"9. c #126CF3",
"0. c #166CF7",
"q. c #0573F5",
"w. c #0B73F3",
"e. c #057AF3",
"r. c #0B7CF4",
"t. c #0574FB",
"y. c #0B74FB",
"u. c #067BF9",
"i. c #0C7BFB",
"p. c #1374F4",
"a. c #127BF4",
"s. c #1B7BF3",
"d. c #1175F9",
"f. c #127CFA",
"g. c #1976F4",
"h. c #2079E8",
"j. c #207AF2",
"k. c #0D82EC",
"l. c #0D8CEE",
"z. c #1582ED",
"x. c #1B83ED",
"c. c #1786E8",
"v. c #1494EF",
"b. c #1B97EF",
"n. c #0686F4",
"m. c #0C84F4",
"M. c #0C8CF4",
"N. c #0C83FB",
"B. c #048CFC",
"V. c #0C8BFB",
"C. c #0689F6",
"Z. c #1483F4",
"A. c #1B83F3",
"S. c #148BF4",
"D. c #1B8CF3",
"F. c #1385FB",
"G. c #1A84FB",
"H. c #138BFB",
"J. c #1A8BFA",
"K. c #0B93F5",
"L. c #0E9AF6",
"P. c #0C94FC",
"I. c #0E9AFC",
"U. c #0692F8",
"Y. c #1493F4",
"T. c #1B93F5",
"R. c #149CF5",
"E. c #1C9BF5",
"W. c #1494FB",
"Q. c #1B92FC",
"!. c #149BFC",
"~. c #1C9BFB",
"^. c #2286EE",
"/. c #248CE9",
"(. c #2697EC",
"). c #3297EC",
"_. c #248BF3",
"`. c #238DFA",
"'. c #2688F5",
"]. c #2493F4",
"[. c #2B93F2",
"{. c #239CF3",
"}. c #2395FA",
"|. c #249CFB",
" X c #2A9AF8",
".X c #3497F7",
"XX c #0CA3F8",
"oX c #13A3F6",
"OX c #1CA4F4",
"+X c #14AAF6",
"@X c #1BA9F4",
"#X c #14A2FB",
"$X c #1CA4FB",
"%X c #14AAFC",
"&X c #1BABFC",
"*X c #1CB3FC",
"=X c #18B4F8",
"-X c #27A5EE",
";X c #38B6EE",
":X c #23A4F4",
">X c #2CA4F4",
",X c #24ABF5",
"<X c #2CADF4",
"1X c #23A2FC",
"2X c #2AA4FC",
"3X c #23ACFC",
"4X c #2BACFB",
"5X c #31ADFA",
"6X c #37A9F7",
"7X c #24B4F6",
"8X c #2BB4F5",
"9X c #24B9F5",
"0X c #25B3FC",
"qX c #2BB3FC",
"wX c #22BBFD",
"eX c #2CBAFC",
"rX c #2BB9F4",
"tX c #33B4F5",
"yX c #35BAF5",
"uX c #3BBCF5",
"iX c #33B4FD",
"pX c #34BBFC",
"aX c #3ABCFC",
"sX c #3BB4F8",
"dX c #32ABE9",
"fX c #168DDD",
"gX c #43BDFC",
"hX c #48BAF5",
"jX c #43ADF9",
"kX c #2AC3FA",
"lX c #3BC3F6",
"zX c #33C4FD",
"xX c #3BC3FC",
"cX c #3CCCFE",
"vX c #37C9F8",
"bX c #4CCCF4",
"nX c #43C5FC",
"mX c #4BC4FC",
"MX c #44CBFC",
"NX c #4CCBFC",
"BX c #46C6F4",
"VX c #51CDF6",
"CX c #53CCFC",
"ZX c #58C7FA",
"AX c #4CD2FE",
"SX c #47D3FA",
"DX c #54D3FD",
"FX c #5BD4FC",
"GX c #56D5F7",
"HX c #4CC6ED",
"JX c #62D6FE",
"KX c #66D9FA",
"LX c #5FE1FF",
"PX c #66E1FF",
/* pixels */
"D.u.1.;.,XE.i.) J $.tX|.D.2.| w.6.w.m.7XMXmXR.R.&X*XR.$X$X$X&XOX!.oXL.@XDXKXnXoXI.I.!.K.P.I.!.P.XX%XXXoXXXU.B.V.P.H.oX&X!.MXFXVX",
">.| 1.| {.K.f.$.F :.tXtXQ.t.6.w.w.w.W.eXlXAX<X3XeX<X3XiX7X%X9X0XI.&XI.eXDXKXBX=XI.U.$X3XI.U.R.I.XX#X*X&X*XI.K.V.I.K.I.I.3XSXVXCX",
"+...a.Z.!.N.W.T.R /.xX{.W.N.w.w.y.&.M.0XMXMX~.L.|.,XGXvX3XoX!.!.I.!.P.qXNXKXNX#X~.I.%X=XK.V.!.#X*X@X9X7X*X&X+XL.P.K.!.!.~.nXDXDX",
"F.y.T.W.&XJ.z.3.E ].nX2Xl.m.w.i.r.H.H.v.0X,XH.W.!.7XAXqX!.R.V.V.P.B.n.nXKXKXFX!.!.XXXXXXC.U.L.I.=XlXcXcXzX9X*X+XV.I.N.#X+XnXCXaX",
"D.+.sX2X:X|.}.6.<.a.>X>X5Xk.i.t.i.&.F.T.R.M.N.W.#X%X3X3X@X~.H.m.R.L.M.DXKXJXCXS.V.P.%X%XXXXX=X=X0XcXvXvXzXkXwX&XV.B.u.#X=XnXnXOX",
"z.'.;X{.OX|.H...W <.F.6XS.Y.p.7.q.r.i.V.W.~.m.E.$X3XzXMXeX0X&X!.&X!.$XAXmXDXDX8XL.L.*X=X=X=XwX=XwXzXSXcXvXkXwXXXU.m.W.&X+XiXsX&X",
"V.{.S.Q.OX2XW.E W 1.r.f.t.H...<. .<.w.T.N.H.S.W.3XzXNXMXzXvXeX&XzX+XwXAXNXDXbXMX&X0XkX=X*X*X*X=XkXzXSXAXvXzXwX%X!.V.B.R.OX8XR.!.",
"}.>XY.5XuXtXtXd._ 3...<.f.e.6.3.w.4.3.H.u.&.W.N.I.pXlXxXzXcX9X&XeX0X3XBXVXFXDXNX%XI.=X=X=X=X%XXX=XcXeXvXcXkX%XU.P.N.B.V.N.R.!.S.",
"T. XS.4XiX<XtX5Xp.m.t...1.3.7.| 2.1.| ( 4.6.q.m.H.eXSXMXcXcXeX=X7X7X~.FXGXJXPXNX$XoX*X*XXX!.K.Y.&XeX=XkXyXpX!.B.w.B.P.U.P.1X7X1X",
"V.H.}.-XdXgXsX@XqX X#.`.3.} 1.<.4.E 1.y.<.} a.V.Z.w.$X,X1XE.#X1X%XI.#XzXxXvXvX7XU.XX&X*X*X&XL.N.!.!.P.C.P.M.L.U.y.M.W.I.U.V.&XqX",
"%.-.{  X4X2X5X>XoXjXh. .( / ^ T 1.3.<.( ^ T w.m.i.r.m.%.D.S.W.P.$XK.K.wXqXpX%XI.I.&X#X$X0XqX1X!.P.B.V.V.u.F.n.V.q.H.K.P.Y.4XoX<X",
"% i I /.<X5XsXaX6XdX'.} s.>.4./ 8.<.E / ~ 7.N.M.r.E.1X~.:XR.e.W.~.1X4XxXxXDXpX3X0XzXeX0XcXMXMXSXrXW.C.N.t.f.q.t.q.U.P.$XeXaX8XpX",
"I u g B |.1X2X(.,.].H.a.S.c...U :.F.r.1.E y.r.G.~.sX,X&XiX$X1X<XqXxXNXVXGXGXDXzXcXvXSXMXBXMXNXGX0XB.W.K.n.m.t.6.u.P.K.3XpXiXzXtX",
"u I I U o.Z jX).p.z. .w.1.E / E e.i...U E 3.&.Q.qXMXbXsXiX2X,XyXrXvXVXJXKXVXbXpXqXMX8XpXSXMXAXDXMX!.V.V.P.H.u.5.H.P.I.3XtXuXaXmX",
"d a f R | ' *.O.T Y K S I R T 3.W.a.9._ _ J { E.BXAXbXVXpXE.E.iXqXiXbXFXJXJXVXBXMXMXaXaXlXbXAXGXtXK.W.V.P.n.i.u.V.R.P.qXLXHXbXGX",
"g B s.P R 3.] ^ F D H f J 1.} ] $.f.w.<.<.] S.&XuXmXDXmX<X4X$X&XeX4XbXDXFXFXDXDXbXuXMXcXxXnXDXGX3XB.m.N.W.N.t.w.V.I.R.4XNXZXmXJX",
"I U +.U G 3 8 4 7 F F T 1.Z.Z.D.T.r.2.1.R w.H.S.:XiXCXnX|.iXOX&X3X*XzXnXFXJXbXAXmXNXaXyXmXNXDXPXiXC.t.y.C.P.q.t.V.B.1X0XqXBXZXVX",
"b Q +.W s 4 4 F I ( F K d.H.w.f.S.:...2.3.w.m.V.<X8XaXiXv.1X3XOX4X4XiXBXFXZXHXtXxXyXeXpXaXuXNXGXqXm.u.5.C.N.3.t.u.V.&XyXaX0XMXmX",
"b Q I F 4 D D J S J ~ ~ | `..._ e.y.3.6.y.Z.!.R.~.,XaX,XU.~.$XaXsXyXxXDXVXCXbXpXqXqX0XeXxXnXMXlX0Xm.m.5.i.i.0.5.5.H.eXlXyXP.3XCX",
"m g 4 1 s I R F S F F T Z.iXz.| -.s.9.} ..r.P.J.V.M.aXlXY.W.qXiXlX8XyX8XyXE.pX0XpXxXpX<XtXpXMXpX&XV.V.y.t.t.t.<.i.oXyXuXkXaXnXVX",
"- 2 5 7 P W 1.8.s D T a.D.b.H.a.Z.a.p.| | m.H.r.V.V.D. XF.Y.8X~.|.:X~.3X1XN.P.W.1XE.{.1X,XpXxX0X,XV.V.f.e.u.u.6.V.qXnXyXoX4XhXbX",
"- 4 D S D f f P 8 ~ S 1.A.D.F.m.u.$...<.y.G.m.a.m.T. .<.7. .H.n.i.m.N.:Xm.q.f.F.N.u.V.W.OX7XeXeXOXu.u.N.m.N.u.e.Q.bXaXnXgXiXtXmX",
"1 u S 4 5 4 4 s s 3 s } r.:XT.r.m.{ l E E 3.a.w.5.A.9.3.<.1.6.3.<.w.F.2X%.$.w.r.v.S.W.Y.&X3X$X!.W.u.F.i.F.N.d.F.~.JXgXgXZXpXxXCX",
"1 4 d 4 4 , 3 8 %   i 1.$.D.r.| 3.+.F / H ' $.' $.:.T E 1.E 1.W W p.T.|.J.7.2.F.F.u.N.m.K.W.V.N.y.u.m.t.m.u.2.%.:XNXZXhXGXhXSXZX",
"i u s 4 3 , , D 2 G v A.Y.T.Z.W ) a.O.S F | %.$.#.a.3.W R J E } E ' } 6.[ %.z.N.y.e.N.3.y.N.N.i.r.M.B.u.2.6.t.m.4XBXFXhXZXKXNXFX",
"* 1 d d 5 * , 2 D W ..J.z.{.|.%.r.S.| S 4 R F.f.J.a.1.3.R 7 ) O.O.( 1.p.G.%.4XE.1X,XE.p.5.OXrXV.F.$X~.Q.r.5.y.Y.$X4X;XgXhXjXY.aX",
"1 2 d 4 3 3 * $ @ : f | v +.a.I | $.G 8 L F &.Z.S.Y.Z.Q.a.P | 3.<.0.E E U F.Q.~.5XqX,XJ.i.R.0XY.i.~.tXOXW.V.5.m.R.R.4X,XuX1XC.iX",
"i u s s S , # @ $ # 3 s d !  .R 4 s 4 4 L P D.p.o.>.-.S.p.W E ( `.ZX^.1.1.p.<.<.G.V.R.!.~.m.V.R.Y.R.xX~.B.S.i.w.F.S.<XqXpX3XY.iX",
"= i s s s 4 * $ @ : $ $ 7 F p W 5 4 s 4 7 U `.Y F ' j._._.{ ..O.hXZX.X[ 3.a.7.d.<.} F.t.Q.f.i.~.1X&XaX2X$X!.y.( 5.S.aXpX,XF.Y.uX",
"* d 2 2 4 d , $ # : # : s T P I 5 4 7 4 K |  X' 9.}.-XtX X2X(..XZXZX`.a.J.D.{.E.d.1.8.6.$.f.y.F.OXR.iX,XOXm.( 1.y.T.tX<X4XS.1XyX",
"g u 1 d g f , 6 7 0 > : 3 R W F 4 4 D s 7 -.|.' >.{.(.5X>X].fX.XhXZXsXQ.$X,XyX<XS.y.w.a.S.{.!.$X1Xl.qXqXK.F.1.( S.$XE.iXiX>X3XpX",
"P f u p P W K , * # * * 6 F G S S d f s d O.:.` o.z.a.S.2X>X-X/.jXhXmX2XE.4XiX4Xg.y.w.d.y.~.Y.}.1X~.2XQ.N.t.3.^ G.3XQ.{.tXhX4X4X",
"g i f Y s G s 6 > 3 5 3 d I s 7 S f I F D f | R $._.A.J.].D. X_.^.C /.).iX7XrX>X4XT.:X3XY.2XW.|.R.F.S.S.H.&.3.6.H.Y.1X<X<XiXqXqX",
"l = I G d S , : @ , 4 S G f s 5 D P P F R U B @.)..XZ ].-X:X>XsX;X XT.:X<X~.3XqXpX3XeX<X1XE.Y.,XR.P.~.~.H.u.5.r.S.|.|.5XiXaXpX<X",
"I p I s 4 4 : 3 o . f R R D s 3 R P F T W | ^..X6X X X>X6Xb.>XhXaX2XT.3XiXOXiXaX9X0X&X3X2X|.$XqXqX@X$XP.m.i.5.r.b.1XE.,X<XtX:X|.",
"z I I f D D 6 3 o % s K F P I g p.p 5 R | c ].).).(.^.c.].|.4X<X:XJ.$.2X,X:XqXyX3XqXT.~.T.~.:X:XpX<X4XE.Z.3.7.i.W.r.2.u.m.~.T.~.",
"z Q f 2 F 4 8 4 o % 6 s R W R ! T , 8 T R f z..X)._.>.>.`.}.-X<X<XA.G.T.:X:X4X!.OXD.3.p.S.T.2XJ.eX|.5XqXF.^ _ &.t._ ^ 0. .2.q.e.",
"u f g s I 4 1 , $ 6 3 F Y I u q $ , 4 f a d +.;.:.,.;.o.;.D.(.E.}.].{.|.F.`. XF.Q.G.1.9.Z.M.S.A.R.S.S.{.G.) 8.2.<.H ~ _ 2.i.J.v.",
"a v d f G s D 5 X @ 3 I l D 1 , 1 ' ..p.] +.G...I f R P  .$.{.Q.p.:.{./.w.<.3.$.a.$.<...$.r.%.r.H.T.m.w.3.U } ^ 9.J F [ k.H.H.k.",
"g I s S F 4 d < X @ 1 g p 5 , d 3 i s K 4 d P D H G P U  .s.x.s.A.2XaX6X XY.r.w.i.:.J.i.w.a.F.e.Z.D.a.E T ^ ) H ( ~ H a.l.%.a.3.",
"- 4 2 , # 3 4 < , 2 2 P s d F g S 1 # : s 6 S J d d D f E p.s.#.E.hX;XsXsX X$.r.N.Z.1X:Xr.J.a.r.Y.F.$.3.J F T R H 9 D / <.q...q.",
"@ , s * * s D 5 s u 1 d u 2 F E K D S 3 D 1.1.R W F H G R U 3...Y.iX2X|.{.1XJ._.Y.-...o.S.Y.:.p.F.3.1.P J ~ H F S H 9 J S s p.u.",
"= # * # < 1 s s 1 4 3 = I G R 3.1.F S S f l | E <.| R ) U } _ I p.H.Z.$.w. .$.c s.' T W o. X].e.} E _ T J J ) F P / 7 D 7 L +. .",
"g i 1 * , 3 5 s % 7 d r p g c [ ..T J c p Y | W 1.U W | <...0.P V F.2.4.z Q P _ #.%.2.E W ,.#.6.G.3.) T P T E | P K 7 L H 1.1. .",
"= u p f f d 6 3 ; 6 s ] o.p l o.{ G ..V C F.w.| w...a.s.| { $. .x #.:.] U R P -.r.$.2.<.1.x ] 1.a.9.P P 1.F R <.R F E W F 7.3.3.",
"g f s O.| f 1 u u % s z y r W -.{ ] c.,.S.F.&.) w.m.M.D.[ x.D.Q.w.] +.#.m.e.W ] 3.) ) |  .] ..:.k.$.1.f T T S P ) <.w.$.<.| 3.<.",
"l Y I z l 1 1 s = - I f a q f 9...p.x.=.p.+.F.E a.S.l.H.f.G.A.A.d.p.:.%.A...3.:.w.p.| $...Y | D.2XF.3.F R T R s H 1.p.[ w. .e.w.",
"p Y z u p 1 # $ = d I a u a q 7.| W N V R 2.m.1.q.].A.a.w.=.-.%.{ F.l.T.9.) r.%.e.-.0.p.3.I p.:X:XW.5.F S T I * S W r.Z.f.m.r.$.",
"W Q 3...;.| = r Y N h.e 1 S s | c a %   = I + @.9.k.z.3...' +.p.r.Z.=.[.B 1.:.$.O.| 1.) 1.P ] !.J.K.w.S J K D S d } r.k.a.:.n.r.",
"d z e p d i = a b Q Q b & % - I E ..f 1 % i N >.-...+.Y p.q.w.[ $.Z.T.%.q.$.$.F.$.q.3.[  .W c J.F.W.p.D T J F S S 4.w.%.w.r.!.H.",
". a * G w % z S u s u d * * * 1 F R S s 6 j ].#. .$.d.U O.-.:.p.{ G.].D.%.w.G.%.a.$.x | d. .'.S.Z.H.U J ^ T R T D F w.Z.E.Y.-.f ",
"q < 2 = q e c o.a e Q a - ; * * 1 s 8 , * @./.o.$.+.o.' g.].].=.T.].].c.#.a.=.%.N.[ Y Y +.| A.%.M.F.f T T E R F 5 f [ { ! G g , ",
"e i * % % . & N z l Q p % % # < , Y S , - Z A ,.,.;.{ x.*.*.c./.s.%.#.{ p.+.' } Q l l W Y v [ |.Q.%.f R T R F D 4 2 | P , 4 3 2 ",
"j l f u . o X n 2 4 S d = = - 3 i p G   r ,.[.A./._.%.D.N p ] z.].:.D.x.%.*.-.V g p W U W O.j N Q.&.I J J F P D s F T R - = F T ",
"z V C ] G @ a a % 1 = g q & & & = s 4 ; % o.).^./._.*.9...Y ] $.c.#._.D.%.x.N V M M j R P ..:.C S.Z.| S F R W 4 K s G P S S F G ",
"k n c z p 1 g p i t e e q - = % % d F s 2 b Z ).(.].o.c X.j n ,./.>.,.x.:.Z B N N M m z F p.S.Q.T.A.U H T P U D s u a = % < 7 s ",
"k j z c z = f d & & w u w = - * % w u p f U ] s.g...3.B { e Q z.^.Z.z.:.{ [ ' N k j ] W [ S.Z.{.>X|.f D T T E P D u a a = $ < % ",
"y k c c a q p q = a w & = % w   - = u I F I Y ' N X.| o.A.c W z.x.x.#.-.g.x p.p.o.@.X.] =.c.^.D.z.i.P S T T W f s = h h - u 1 1 ",
"c m a z & & p u p q t r e e b % 1 s g p 2 a k { c.'.| +.=.@.Y { ^.=.{ s.O.Y ] Y E x W +.$.a.0.<.O.} F 8 F s F 4 S s i 2 2 I f u ",
"r w q p & % q - q = q u j r & % q t & % . a o.#.=.>.....:.n p *.^.>.,.>.{ c x ] U G.D.>.c.-.9.' Y ) d 3 4 s D 7 S g 1 - s s f E ",
"+ M r q % w q = - = g l g G a e g a & & b O.$.r.z.=.G.+.s.U U o.,.C h.s.+.x $.r.p.A.k.%.>.p.1.' P 1.G 4 7 D F S s d 1 1 1 d 8.E ",
"+ t t a - - q a t e e u I F  . .W W ! O.+.| [ X.:.A.{ l w.] x Q X.V X.N N o.o.[ p.[ p.f.' ' P Y f U J 4 D s s F s s 4 1 s Y W E ",
"X + & z u * = u b u 4 s i a X.+.' ] x p l f f Q ..] l G U W g g b l ] l O.;.Q e x ..1.P } F ) W s P G f f D F s f G D u G U W Y ",
"O o X a i a Y p u * i u u g I x f e u d 4 2 p p p q g d c Y l P Y ] } ] 9.' ' c 1 *.+.c P s s l d S P | f S F K F d s f 8.Y | c "
};
