/* XPM */
static char *_c646e384ccb4805d0d5f677eea395dfANYvVAUNaE82H6hV[] = {
/* columns rows colors chars-per-pixel */
"64 64 62 1 ",
"  c #C46427",
". c #CB6627",
"X c #CA6925",
"o c #C6672A",
"O c #C56B2D",
"+ c #CC6C2C",
"@ c #D36D2C",
"# c #CF712D",
"$ c #D2712E",
"% c #C56C30",
"& c #CC6E32",
"* c #D36D30",
"= c #CE7234",
"- c #CD753A",
"; c #CE7A3D",
": c #D27435",
"> c #DB7532",
", c #D57836",
"< c #D97A36",
"1 c #D37639",
"2 c #D57B3C",
"3 c #D97C3D",
"4 c #E07E3F",
"5 c #CE7B43",
"6 c #D47D42",
"7 c #D97E41",
"8 c #D27E49",
"9 c #D5803F",
"0 c #DC813F",
"q c #D58244",
"w c #DA8445",
"e c #DB8847",
"r c #D5844B",
"t c #DA864A",
"y c #D7884E",
"u c #DC8A4C",
"i c #CF8150",
"p c #D78652",
"a c #D98750",
"s c #D68A53",
"d c #DC8C53",
"f c #D68D59",
"g c #DB8E59",
"h c #DD9056",
"j c #D7915C",
"k c #DD925B",
"l c #E08645",
"z c #E08946",
"x c #E0874B",
"c c #E18C4C",
"v c #E18E53",
"b c #E08F5A",
"n c #E19155",
"m c #E1935B",
"M c #E2985E",
"N c #D59160",
"B c #DC9561",
"V c #DE9963",
"C c #DE9B69",
"Z c #E19661",
"A c #E19A63",
"S c #E29E68",
/* pixels */
"igataavadkahMMyakpdduuwlewwleeudc6wlxvx3x73<<7ast8tyy8t66::2;-#:",
"fbvaadkdgMmhkAdnmddduueweww3euyut7wuuutwuut3<78g77tqypt881-282:=",
"ggddgZZkmZmkkVgdgddduxewuewweuddtttxdutedux337ta22q6qrrr6::16*@&",
"p8aapkBkkMbgkZgddddduteecxtwunkhdctxhuqwutw777aa77eri8r682225-*=",
"g8vdpMksgkdkkBgdvgdduzxuuuxwudmdnuwwutw7twwwqqttt6tr8r6-63965-15",
"gpadpgkpggkmkksgammdeecxtcctuvmkmvteue7wtw4xqqyy68rt566=1<255*-%",
"paabkkkkgkmmkkssdhmdeexuuuveuummdvtxtwlww7339qtr6rty8w6322;r8-:%",
"gfpkkjBgdapdgkshagkdelxudcceuuvnduwuuteww2<2weuyww2raa87<,-88&@@",
"BfpddbamggbbgmBfuddhdueculzeeunnvuyaducyvr8aawudfattta8-11=11*.+",
"fZdaadddmbmkkmkBykkpuueteetuuuudcdanhunhdaykaqudbg7tdp86811151&@",
"fkgdapddmkmkkBBBdsdhhueyduuuhnnhuvmnnhmkdaady7yhpa88ar8785-11:*$",
"fpfdpdandpgdkVVVMhsnnduehnuuunhhynmnhukkatudywudaattar667711:>:$",
"gppppdaddgkkkAVVjkhddnu0evueccuuuddhuuhkduuuyqeydyqyauq6q66-::*:",
"ggabgdbydvmkkAjVjhduydcwexceznnuhnuyuudhhueudeqetrqq6qt6yr862::$",
"papmbdmadkhdkAVVBduuutewczzeunhumhduueuvkueysuqqrqrr687wqq72:$##",
"drykggabdvdanVjBBdewuuclcccxeuhhmhdezewujduysveqwttrr8226221$>@@",
"grmgkgdbadnhmZBVBkduyccuueccuuuukkmdueuchdayuuuqrdp237721=2&&:+*",
"ksZBgfavnhnddZVNBBkauxcucuzcuuhvhmmduuudkhdyyutqqar737t7:261=:&=",
"gfgZZggvhnkdamBkBZkdewccuuwuuyhuhmMkhudhhhyyuhhrtay23362:5881<1;",
"BBBZZgddydmdakZZmZMmewuucctchunvdhmMhuuuddeeyhurwr672326258p1115",
"BBBkgpdaadhhgkkkddkmewzuuvunvunvuhMkveeehueeeyer76;272qr7888-:1-",
"BBkBmgacpddkgsddadadtweuuuyduyvnunkkaellyeeeeeyer277qwqypr861:2-",
"BBBAkdttpddkkpdkmddvueuxcuuhhuvhehVVhueuuueeeuutr2ww23epsr2131::",
"BNBBgvtvdMkkZkhkmdadueuxcuvhhhuyehVCkuuuhduequyyy7372,wyfr:><1&@",
"jffddtavvZZCVkankddddvucnnhmcuhurmkAheeeuuuewetre72226rrip1322&.",
"gggp8xtavgBABkyuvhvmmnveunmmuvnvuvkkkueeucveweuyrq2226rrir<1261+",
"gkfa8xttsydMkZutacdhMmhuukmchuedwukkhnuuuuexquuyt7627qrrrr::;6- ",
"BZggruadkattpguwettummhuchvchu3t7uAkhhvcueeu6qtyurq;7ttrq2=2786-",
"ffgg8aamkmurkfgwwwwtvveecqwzcu3w3qMhhhuuweewwtuutrqqqrqq62$27r62",
"8a8dauvbhmkhSSAs3lwtuyee920wut66,2hhyvyewwe7etcttuyrttq22,$:25-=",
"dppdxxxdkpkkkAAVwwttauue;>0zxyr&$,rhhuuueetqw7w9qttaytq2-:#,222:",
"kkspata8t;hMkMBAaauudnnve><91qg7>:unuuueeeewe22226tyyr673,@:22:<",
"BCkddaavrdkkkkZSMkunnmnnvvq6w2nn3:7dyueeweew7tw332rtyr6w32:2322:",
"BZkgpauutdkkkkSVMhhnnnhvnvueteuul2enuueewuewque37tayqq2202=33222",
"NBBgbgayupkdkBVVkkhhnmmhnddetweywqucvxulweeqwee2,2t72q0,92=22:=:",
"BBZmZmdyvkkkhkkZkMhvunnunhutttuurtnuuxee20e2we22:262232,22:2::=X",
"BgfggZbdgZkMdMkZnhnccuceumvuuehhuhncccece7w7wew3,379323322:::::&",
"kBgkkmdadkAddkMfhuuuueuceuuuheeehnnneccucewqez33:w22332,22=1222:",
"pkmkmmhuahkduhkkhuuuuyeeuuhnnuyeuhvuuuzeyuuuew3:3w3203312:+22-1:",
"ydvdgmnnnnddyhjVhhnuhuhnnehunnnheevvnuu9tvuuq2<<13:233,2,,&22--&",
"atavvabbhhkhkhCSkkhcvyuhhhhhyhhkqehkhhdhuuuvquq773<2332,2,=:1:=&",
"kprtuudmhkkhhjVVhhhhnuuhhhuuyeyueunhnduucuycttwww322332222-22=&+",
"kaaytradkkkkkkVjhnkkkhyuhyuuheeueeunyyuuuueete73323302222;;7-&OX",
"kkhhdadhkkkjkkAkvnhkkhyhhnhnnnhueeeeueeuuq9eew3<::332222q;-2-OX.",
"Vkpgddkvhhksdmhdudkkkkuunnnhunhhyuereqeyuqwwww72:2222722q622=O o",
"BBggdpgdkhksdvyrrdkVAkyyenhuhhkkhuuuuyudyueeeee2137372q252;2;-OX",
"BVBZfsdkkkjkddurrskkkkhhuhkkhkkkkhdyuydhcwqwuuw92wwq2qq0;2:285%.",
"NCkBgskhjVjjkgmykkjkjhhmnhhkhhhmkkduuyduu29ecqq2766qqq92;,:=8r%&",
"fABkZggkkkkkkjkMkghkyyndvcdmpuuMhknddytw033eyt67w7222902<:::28-+",
"pfkBfpaddddkjhkhgkkkvunvdudhyqukkhnduuxee37eyt2277qq90q22,::18-+",
"fskgr8ypdvgkVkkkfMkkvdudyvdkaqeddhndnuuuu<7equ22222w239,2::$=;-.",
"jgBdagdryadkVkkjkkgkauuyrdddhqehddddutwex23ert62w709339,2:#$+-=.",
"pgg8pmkppsgBVVkkkmBkydhpuuugmuuMmmaureqwu73ttw772229223,2-$$+=1.",
"fpr5tkkkhhkVAkVkgmZZtmkgtxupntqhmmpqtueww317rq67qqwqw99,2,+@+&-X",
"Bfg8dkkBhkgBBfjhpmZkpkBkauvaaw2ekmyqqtwq73:6r66622qq222:,-@@+%=X",
"SkbrpskBkdjBBkgdvmfgpkkkkvdyqw9udMmywt379<2quu8eqqqt;2,,:2+@:-1+",
"CBfprvbgdgNBBBpgkkgvpkmZyuuvrtqumMfsmu7t7*:7auyt9quq22:::%+$#=,=",
"CBgdpapgdgBBBkfmkkggdgkddytuyyqehkBkdywwl<:7uatqqqqq62:=:#+@##:&",
"NCBpaagBggBZZZgbMgggdpdduttt8tteumAkadw13737ytyrw9qyq2:@#++++O++",
"NVkgdkmggpptdmgBmdgkkddyvuatqtq7yhkfdae&:77wuryteqruyq5*#X++$&+ ",
"BBgfgggfbga758pfdsgkkkdtahdvave2tagghvw7wx3eutytuurrtt72++<1-O+#",
"BNfadkmgpdxx68fZgggkkkkttyddytutrvgayutv772qtttqwqrrr886:=112-=-",
"ffarydhdgdta8bmkfBBkkjmfudkdttcytuattuxatwttuuteq77w76861-2-;;=;",
"ppppapypsaaa8gkBBfgdkkBkxamkauuttruxxttavcut6teww21373771:2;q6--"
};
