/* XPM */
static char *_1306bb49ce0476b89e5657f011333687Wu2ApBqyQfvKs9w[] = {
/* columns rows colors chars-per-pixel */
"64 64 253 2 ",
"   c #921B69",
".  c #8C1B6D",
"X  c #8C2676",
"o  c #942275",
"O  c #9B2474",
"+  c #9B257C",
"@  c #9B2B7B",
"#  c #962B77",
"$  c #9D3476",
"%  c #953179",
"&  c #9C337C",
"*  c #9C3A7B",
"=  c #94397A",
"-  c #95246A",
";  c #A3347D",
":  c #A23C7D",
">  c #A12B76",
",  c #9C407F",
"<  c #A2447B",
"1  c #992A81",
"2  c #9C3582",
"3  c #9C3C84",
"4  c #9B3B87",
"5  c #A33583",
"6  c #A33C84",
"7  c #A43C89",
"8  c #AA3C8B",
"9  c #A73A86",
"0  c #9D4389",
"q  c #9D4584",
"w  c #9E4B92",
"e  c #A44485",
"r  c #A94484",
"t  c #A54984",
"y  c #AB4A86",
"u  c #A4438B",
"i  c #AA448B",
"p  c #A44B8C",
"a  c #AB4C8D",
"s  c #B24C8C",
"d  c #B2478E",
"f  c #A5528B",
"g  c #AB538C",
"h  c #A75789",
"j  c #B2558D",
"k  c #B35A8C",
"l  c #A44492",
"z  c #A94694",
"x  c #A54C92",
"c  c #AB4C93",
"v  c #AD4D99",
"b  c #B14D94",
"n  c #B24994",
"m  c #A55293",
"M  c #AC5493",
"N  c #A65B92",
"B  c #AC5B94",
"V  c #AD549B",
"C  c #AD5C9B",
"Z  c #A65D9A",
"A  c #B35594",
"S  c #B35B95",
"D  c #B3559A",
"F  c #B45C9B",
"G  c #B95D9C",
"H  c #BB5B9A",
"J  c #AE6295",
"K  c #AD639B",
"L  c #A96997",
"P  c #B46395",
"I  c #B3639C",
"U  c #BA639D",
"Y  c #B46B9C",
"T  c #BB6C9C",
"R  c #B96697",
"E  c #B5739C",
"W  c #BB719E",
"Q  c #B7799B",
"!  c #AF769F",
"~  c #AC5AA1",
"^  c #B45DA1",
"/  c #BB5DA6",
"(  c #AC64A2",
")  c #B465A2",
"_  c #BB64A3",
"`  c #B46BA3",
"'  c #BB6BA4",
"]  c #B56BAA",
"[  c #BB6CAA",
"{  c #B865A9",
"}  c #B672A4",
"|  c #BC73A4",
" . c #BC7AA5",
".. c #B673AB",
"X. c #BB73AB",
"o. c #B67BAA",
"O. c #BD7BAC",
"+. c #B77DA4",
"@. c #BE7CB2",
"#. c #BC76B2",
"$. c #BA6CB3",
"%. c #C3659B",
"&. c #C05CA2",
"*. c #C26EAB",
"=. c #C26AA5",
"-. c #C275A5",
";. c #C27CA5",
":. c #C274AC",
">. c #C27CAC",
",. c #C878AB",
"<. c #C274B2",
"1. c #C47CB2",
"2. c #CA7CB2",
"3. c #C97DBA",
"4. c #C36CB0",
"5. c #C2599B",
"6. c #BD83AC",
"7. c #BB85A8",
"8. c #BD83B3",
"9. c #BE87B6",
"0. c #C483AD",
"q. c #C58BAD",
"w. c #C886AC",
"e. c #C594AE",
"r. c #C384B3",
"t. c #CA83B3",
"y. c #C48CB4",
"u. c #CA8BB5",
"i. c #C584B9",
"p. c #CB84B9",
"a. c #C48BBA",
"s. c #CB8DBA",
"d. c #D18CB5",
"f. c #D18DBB",
"g. c #D086B4",
"h. c #C492B5",
"j. c #CB92B5",
"k. c #CC9CB6",
"l. c #C592BB",
"z. c #CC93BB",
"x. c #CC9BBC",
"c. c #C59BBE",
"v. c #D293B5",
"b. c #D394BC",
"n. c #D29BBD",
"m. c #D59CB7",
"M. c #CDA1BE",
"N. c #CAA7BB",
"B. c #D2A1BD",
"V. c #D6A8BE",
"C. c #CC94C1",
"Z. c #CC9CC3",
"A. c #CA99C6",
"S. c #D295C2",
"D. c #D49CC3",
"F. c #D79CC7",
"G. c #CB8DC1",
"H. c #CDA3C4",
"J. c #CDAAC4",
"K. c #CEA4CA",
"L. c #C8A5C5",
"P. c #D3A4C4",
"I. c #DBA4C4",
"U. c #D3ABC4",
"Y. c #DAAAC5",
"T. c #D4A4CA",
"R. c #DBA4CB",
"E. c #D4ACCB",
"W. c #DAACCB",
"Q. c #D5B2CC",
"!. c #DBB3CD",
"~. c #D6BACD",
"^. c #DCBBCD",
"/. c #D7B4C6",
"(. c #D5ADD2",
"). c #DCADD1",
"_. c #D8A7D4",
"`. c #D6B4D4",
"'. c #DBB3D3",
"]. c #D5B9D2",
"[. c #DCBCD4",
"{. c #DDB5DA",
"}. c #DBBCDA",
"|. c #D6B2D8",
" X c #CDB2CD",
".X c #E1B4CD",
"XX c #E2BBCE",
"oX c #E8B5CD",
"OX c #E2ADD4",
"+X c #E3B4D3",
"@X c #E2BBD5",
"#X c #E4BDDA",
"$X c #E8B9D8",
"%X c #E7B3D0",
"&X c #DFBBE1",
"*X c #DCC3D4",
"=X c #DDC4DA",
"-X c #DDCADB",
";X c #D7C5D6",
":X c #DDD1D8",
">X c #E3C2D5",
",X c #E3C9D5",
"<X c #E3C4DB",
"1X c #EAC4DC",
"2X c #E4CBDD",
"3X c #EACBDC",
"4X c #E8C7D2",
"5X c #E4D2DC",
"6X c #E9D2DE",
"7X c #E7D8DE",
"8X c #F0D6DF",
"9X c #DECBE3",
"0X c #DED3E3",
"qX c #E3C5E1",
"wX c #E5CCE2",
"eX c #EBCCE3",
"rX c #E7C9E7",
"tX c #F1CBE5",
"yX c #E4D3E3",
"uX c #EBD3E4",
"iX c #E4DAE4",
"pX c #ECDAE5",
"aX c #ECD4EA",
"sX c #E6DBE9",
"dX c #EBDCEB",
"fX c #E5D5EB",
"gX c #F2D4E5",
"hX c #F2DDEB",
"jX c #F2D8E7",
"kX c #EADCF1",
"lX c #F3DDF1",
"zX c #ECE2EC",
"xX c #E9E4E8",
"cX c #F2E3ED",
"vX c #F2EBED",
"bX c #F6E8E9",
"nX c #EDE4F3",
"mX c #EDEAF3",
"MX c #ECE6F8",
"NX c #F3E4F3",
"BX c #F3EAF4",
"VX c #F9EBF4",
"CX c #F4ECFC",
"ZX c #FAECFB",
"AX c #F7E4F6",
"SX c #EEF9F4",
"DX c #F4F3F5",
"FX c #F6F4FC",
"GX c #FCF4FC",
"HX c #F5FDFE",
"JX c #FDFDFE",
"KX c #FBF5F5",
"LX c #F7F2EF",
/* pixels */
"dXk.S.W.b.b.P.u.8.m.KX,X(.`.<XeX2XuXeX@XuXJX-X).).W.[.(.C.,.w.mXBX!.[.2XdXeX1X2X@X!.NXzX-X>X<X#X'.A.F.l.2XZXo.a A B S _ ..` P D.",
"qXv.D.(.F.D.c.l.1.u.ZX[.E.#XeX,X2XtXaX<X,XGX!.[.W..XH.f.X.X.T aXNXE.$XeXeXyXeX2X#XU.ZXpX@XeX1X=X@XF.w.z.+XGXN d C S N F :._ V | ",
"eXh.D.H.z.s.b.d.3.j.GX@XW.$X2X>X3XaXpXgX2XGX^.W.[.!.y.=.i.r.T lXBXI.[.aXgX2X2XaX=X!.ZXuX@XeXqX+X[.K.D.D.@XCXM m A V A I P D M ] ",
"mXz.s.s.u.O.a.u.r.~.NX<XU.<X2XqX3XfXhX>XhXZX-XI.T.E.v.t.i.@.h.VXnXU.@XwXqX1X>XqX@X+XFXcX^.,X1X).@XT.z.j.uXHXP * A i p A B N t C.",
"<XdXV.t.8.:.Y 1.E.sXS iXeX'.1XuXuX2X2XuXNXyXNX<XP.Z.b.r.>.n.MX6XaXkXW.@X2X<X[.W.U.AX2XeXdX=X<XU.+XE.D.iXlX[.jXT x M c B D a 6.pX",
"i.E.yXW.y.r.-.~.W.c a ` J.3X2XuXeX=XcXAX2X=XeXlX<X>.#.X.h.DXuX[.>XkXpXE.[.@XY.[.nX@XP.Y.[.uX[.OX{.U.zXvX!.R.-XFXa.& m a : #XvX2X",
"A.s.W.NX<Xn.fX0Xe @ a M $  XkX3XeXpXcX<X1XeX=X*XuX>X,.W.BXpX[.$X1X[.uXlX2X!.1XlXH.u.R.D.D.W.lX=XW.jXdXXXOX'.!.@XdXT.: Y dX3XW.OX",
"v.B.{.'.pXVXj.@ q c c P F + 0.pXdXpX>XeX*X1XwX1X,XdXyXCX2X@X<X[.[.=XW.@XdX*XNXj.b.s.C.F.c.D.j.9XxX6X).`.W.M.Y.C.b.dXU.hX;XE.(.T.",
"n.).@X`.6XVXu A H M i H J c @ gXBX+X2XqX1X>X>X=XqXXXGXiX+X#X2XQ.).OXT.P.uXGXI.x.s.b.+XR.z.u.z.,XLXE._.+XW.c.T.u.8.c.JXyXt.R._.H.",
"W.).I.`.2X>X0 H C C B ) Y M & 2XNX@X1X<X#X>X>X$X#X[.nX3X+X}.1XoX!..X'.H.>XGXD.z.O.y. X'.S.9.v.#XNXP.L.+XR.D.D.y.t.s.BX@Xb.k.z.z.",
"I.E.!.W.[.eX3 { Y _ _ =.F b u -XZX!.>X1X@X=X@X1XwXW.ZX>XW.'.^.+X!.2X[.W.<XJXD.C.>.r.k.P.F.D.T.1XbXD.C.D.Y.b.).P.b.y.SXeXs.K.y.d.",
"U.).E.E.gXDXN 3 [ #.X.r.M & I xXpX2X[.#X`.~.#X1X<XuXxXhXT.B.`.`.+X[.W.$XhXpXaXh.[ | <.s.[.Q.[.dXVXE.r.D.P.P.T.I.S.2X6X2Xn.u.C.d.",
"[.).%XnXuX@XaX;.r I X.X.i } iX2X<XhXgX>X1X#X@XW.sXhXN !.xX!.(.+X}.).$XDX].f rXdXD.O.1.s.>.!.vX1XQ.NX[.s.A.n.n.s.3X9X0.C.zX>Xu.Z.",
"E.'.pX*X+XQ.+XhX| g ) g -.NX^.#X{.Q.7XpX`.+XQ.xXwX& 6 : h.CXP.I.I.[.BX6.9 j * y.NX6.6.X.0.uXh.2.h.I.xXE.y.s.h.eX>XI 1.-.y.2X`.r.",
"eXNX3XY.`.{.!.`.uX9Xa ~.0XOX[.OX'.'.>XpXuXU.CXwXa & 2 ; 5 k.bX`.9XxX7.p D D P b y.xXs.OXfXz.:.[ :.t.n.hXeXu.CXE.r.@.>.;.s.H.aX@X",
"bX}.'.+X`.!.!.).E.eXdXpXR.{./.H.D.OX{.J.6XcX@X- X ; 2 5 u # B vXNXA 7 u B D ` ) A s.dXiXx.r.r.:.@.d.y.s.2XvX>X-.i.1.r.8.b.b.h.6X",
"uXE.E.[.[.W.[.W.W.+XJX!.W.W.R.U.D.E.[.(.+XJXh O 5 ; 2 = r c . >XuXq v C H B U ` K j nX1X>.t.S.q.h.x.D.s.J.JXT.u.a.t.O.r.i.u.w.F.",
"1XE.).).!.+X#X+XE.+XFX!.R.E.W.Y.Y.F.E.T.oXFXe 1 $ 2 4 6 s z 1 /.uXe C ] ) k ( S S D yX^.O.r.z.F.C.I.P.S.K.ZXj.u.f.h.d.f.8.i.0.h.",
"pXD.T.'.+XY.[.(.R.[.HX@XI.(.T.P.T.P.P.I.XXJXf o 3 # 7 i q l % dXcXr c U F g ) F ^ b vX5X>.a.s.H.b.T.J.f.U.JXB.>.y.>.s.D.v.n.@.T.",
"ZX[.n.W.`.).!.Y.Q.NX5XcX`.S.P.D.C.Z.Z.E.NXzX~.- & 7 8 0 5 & W.xX@X`.g U N V _ ) 0 y.7XpXU.2.S.P.n.R.x.P.nXn.fXH.2.r.y.R.U.s.T.NX",
"!.sXpXn.).(.P.,XAXeXW.@XlXyXk.z.K.f.!.VX[.0.}.hXP X i e % [.hXS.l.=XpX1.Z H =.B P.fXt.f.kX<Xu.n.C.y.XXMXB.( 8.2X}.>.g.z.1.J.LXW.",
"R.U.dXuXY.x.#XDX^.c.W.l.H.dXeXT.b./.NX/.u.r.Y '.uXO.; h T.pXn.Z.D.j.2XwX' y J H.pX| p.X.+.sXeXz.y.!.BXj.,.1.W q.uX2Xr.` B.zXn.,.",
"H.W.F.wXpX/.CX!.n.P.S.z.C.k.>XlX!.BXH.z.S.3. .1.r.vXh.aXzXE.x.P.P.P.c.n.iXI qXqX6.>.+.i.,.0.T.yX!.AXT.0.t.t.>.:.R ~.*XS.lX0.r.x.",
"v.E.T.0.6XJXP.C.C.S.r.f.p.l. .2XJXk.3.h.D.| >.r.r.z.GXpXs.!.I.C.D.E.I.S.'.DX*XH :. .:.4.;.Z.} eXJXk.a.P.,.r.9.s.X.F yXHXP :.9.s.",
"u.Z.S.y.^.BXu.F.z.C.b.w.r.r. .+XvX-.i.s.k.O.X.t.y.u.BX4XK.|.R.j.x._.(.s.z.JXn.O.` <.X.X.;.f.6.'.VXj.P.n.<.#.| u.X.g /.dXO.F.i.#.",
"r.k.F.z.Q.MXn.C.j.s.y.b.u.2.#.^.pX..3.h.D.t.X.p.2.+.MX[.n.D.v.y.S.B.Q.T.k.CXz.O.| >.O.>.' [ r.'.hX3.A.-.` *.r.>.r./ !.=X' q.:.' ",
"0.z.P.O.@XKXS.y.s.l.f.6.h.i.| xXNXX.r.u.F.o.:.>.:.o.GX>Xw.Z.F.q.I.I.W.F.P.JXS._ 1. .+.<.' _ _ [.GX:.8.r.| W 9.0.y.C NX5Xe >.7.S ",
"p.i.@.D.cXpX=Xq.p.p.i.a.i.;.3XwXeX~.' s.z.@.X.[ T wXdXhXT.T.E.P.E.D.z.!.nX[.nX:.U -.[ X.:.K x.xXiX/.0.D.h.2.t.<.T #X6XMXa.& ^ B ",
"] U Q.nXT.a.yXhXc.;.t.t.p.5X.XO.0.iX6Xy.1.t.I y.hXgXz.[.vX,XI.K.y.r.].pX0.# Z.yXP.K [ ' [ [.xXb.a.uXhXD.1.[ N ` zXwX>.F.2X[.` c ",
"e j.pXW >.-.D [.GXn.| s.nXD.p i.t.] ~.uXr.W ;.dXE.7.s.1.k.DXqXj.y.@XCXy # p % P HXt.I I /.pXB *.] S >XMXl.U | uXXX` 0.w.' cX/.A ",
"E.xXs.#.q.| ..U 6.VXT.kX7.i ..) ' >./ !.hXa.vXW.i.v.p.r.0.>.2XuXqX*XB 7 * 5 d 2 g pXG.E.pX1.X.X.) %.I 0.NXH.pXM.1.r.0.l.t.W E.zX",
"vXs.,.p.r.r.r.:.p z.JXj.p ` F A M a.y.M J.JXE.r.c.z.u._ X.I I CX5XO 9 p u z 4 q # p vXiX1.i.r.T C B C * n.JXz.F @.1.u.F.l.s.>.fX",
"[.;.z.a.>.0.>...S | JX .M ) ) s g a.f.) 0.GXO.z.T.u.8.' M ^ S iXA.- w a 7 u 9 7 6 % pX'.' x.i.G F C M a [ JX;.^ O.r.w.).H.S.z.[.",
"T.| u.t.:.1.[ I D O.JX` V } [ Y [ Z.k.X.u.JX] w.B.1.#.} A ) B dXB.o b i 6 e 3 & 8 # fXU.P S.:.g p F m p +.JX` M X.p.3.T.z.z.b.@X",
"sXY <.2.[ X.M b e E.GXy.: ..r.>.:.d.x.G ].FXa.} m.9.:.O.A u T FXpX$ 2 e 7 z = 9 O 3 vX,XF 1.6.V g a d @ /.DXz.& F ' X.b.S.9.7.pX",
"Q.2X8.' Y ` ' g I.mXw.dX7.D 1.1.O.^ f c.tXE dXP.i.X.F ,.N @.vX2XzX~.; 3 7 2 ; @ 3  Xn.(.;X0.' G I a 4 [.pXC KXP.I #.j.x.Z.h.eXyX",
"F y.*Xr.U ' m ,XxXr.} x.aXy.a O._ l =X[.` S ' U.`.:.O.{ h.bXqXP.U.eX].- @ :   B 2Xy./ &.e.[.O.` [ c 0XQ.f u | iXdX6.S.E.R.cXL.H ",
"_ ' 7.wXC.I =XaXh.;.1.s.y.fX!.| | !.!.t ] O.F B U.@XO.H.yXP.s.R.T.S.}.T.m O O.}.E a [ } D :.2Xy.` ,X$Xi i B s K aXpXq.|.VXz.$ B ",
"` o.p.j.wXyX!.` 3. .{ ,.| C ;XM.!.H.c S A F ` ] B I.2XuXP.C.s.x.x.Z.C.U.wX6.iXB M M g H K ' { *XuXJ.0 M t e V e # J.eXpXE @ M F ",
"_ T h.,.U.GXg _ ;.o.U >.' i I VX,Xv ) U K P g H ] M mXU.z.v.j.+XR.v.z.i.2XJXR b D V M B h T M k.VXi f g z 5 l < @ * JX*X& c i D ",
"~ Y Y [ z.aXg H >.r.Y  .) F V kX+XB _ B F K D j H g &XE.u.O.f.Q.'.e.0.Z.XXDXP ~ M g a M V D g 9.wXr y M D : x 6 6 2 jXE.D a z I ",
"j [ X.X.Q cXx D S ' _ O.u.| S pX7Xf $.S S F F K O.y uXY.s.:.>.x.T.D.D.T.XXJXT F I M c c m ` g s.nX* 0 p i 8 A f c * xX[.e M a ) ",
"S #.| ' +XvX' 3 V I ^ X.;.[ /.2X}. .m C H h I { K r.xX,Xy. .:.>.b.`.).#XMX-XU.g D B M z D U S >XhXM + v t e M z e l.*X.XJ f I C ",
"` _ a.yXE. .0XZ.a C D { I ;X2XR C eXI.C _ K / J {.sXK  XdXS.+.<.G.w.[.fXE.B {.3XO.B K a i 6.yX<XU.5Xp.4 M x 6 q |.=XM ( =XD.C S ",
"B | uXO.N j ^ ,Xq.3 3 a T.<Xa M e e !.k.p G y N.!.e S c q.yXp.0.-. .zX7.y ..) y.3XA N i g zX<XT.W.'.6X+.i & i B.W.@ c : # {.M.y ",
"x.qX0.F ` _ C S [.9Xp 7Xz.M B N p z F Q.(.a wXE.R I { C p 1.2Xs.U.rX| %.F ) ) U k.uXB i.BX@X'.Y.`.+X).pX`.p jX9.$ 3 a 0 5 C }./.",
"6X| S  .[ D S M u k.bXJ.+ a N d i f c > x.-XE.B O.X.F _ D e P wXNX} ( ' B F -.X.M ! =XpXE.R.W.T.E.[.W.P.yXvXe.o p i t l x 6 2 [.",
"E.V I [ { B C M p ' JXJ 9 0 g i u c m 5 Y HXP / ' :.A ) ' B e =X2XS [ ' D U ) ..[ t aXdXB.Q.@XW.W.@X!.Q.XXFXx 2 i u y 5 p a 7  .",
"Z.M G K F V k B z k ZXM 2 u u 8 6 a M & Y NXJ ~ A } A T | / c [.;XD X._ R I | ' ' f wXpXF.W.@XOX).@X[.+X[.ZXq i M e 8 4 5 c q ' ",
"^.z S h H p V M 3 ` HXQ 1 i 0 e 6 x a X >.JXF e B D V C L F p uXjXC ] Y C I ` [ P f CXbXT.L.Y.`.'.=X>X[.qXJXW 3 C y 3 7 r r & z.",
"nXq.: C A a m 8 V pX7.<XR + p 7 5 a 6 k uX(.qXr t U V D ) a U.qXz.,X) J F C _ ' q [.2XhX6XI.W.Q.XX#X&X3XFX .wX} n g e 9 p 5 O.BX",
"T yX}.e y g 6 y.uXr.@ I ;Xx.o u i % ` mXO.0 J.kX .t A D K 2X*XD e c.7X-.v K D : qXeXS >.7XNXT.W.!.R.@XiXo.$ ` eXJ.@ e a 1 9.VXD.",
"p e -X^.C 5  .nXK $ z 3 a -XV.p # Y uX' # C < r.aX@.e B ,X,X6 B _ 7 M.3Xl.: A L.=X: A I ` aXzX+X'.6XCXI e p & B iX(.M ; E dX6.` ",
"V g i y.qX9.bXY 8 a u e l 2 M.2XX.zX' u h D _ e D iX8.3X!.V a I F T a N dX1.2XK.t c B ) [ ) n.BXsXuX1.V A e a i 9 Q.}.y.zXE { :.",
"p M M 1 T.SXh & a 3 y u c p # Q.JXR 0 p j M v B p Y JX!.7 ] f M J .._ 3 Y JXU.  u h M v ` _ e *XJXN c [ e a z N v p 2XKXB p S ) ",
"8 e x 3 Q NX6 z z u 6 : i u & b.xXc Y D V G I U :.Y vXu.C ` A a D _ *.a e JXP 2 v e a i g F M Z.jXa ' K a u r M a 2 W.fXi F B G ",
"e e v 4 -.aX& i 5 3 3 u 9 v * C.uXB _ C C C 5.B [ | cX8.B C c e C ( T F f GXm ; y 3 3 i S U D C.yX7 D i p e a c ~ & `.2Xt D S F ",
"7 p g X u.JX3 & 6 7 e 7 6 z O ,XcXj ) U S C V f v L KXM.5 k F e D S ' D W JXJ ; 3 5 0 u N [ & ~.KX2 8 g e u F x j # aXgXp m g V ",
"u 9 & P pX^.L.# 6 e 0 e 4 2 N.vXZXk.c C k v s i r ,X<XtXI V { V g / a +.<XF.iX* O $ l u a l y.5X0Xk.* C ~ V P v : P.xXpXp.p a S ",
"5 X N.mXs.6 E.eXL # i O i dXDX`.[.MX-XI y B e I zX[.& 9.xXY.M C < @ c.nXO.U L.qXq.1 # e # /.AX| p wX0XI 7 g ; h dXuX}.=XmX~.N c ",
"o W vXR G I z /.NX} 2 B ;XbXR.Q.[.R.VX*XM p s yX~.@ u @ ` JXV.g 6 x.0Xa p ;.7 y.KXC # o 7.LX0 @ ;   dXNXY * K eX3X`.tX1X!.NXU.g ",
"n.}.^ ( ` S F K a.CX6.aXjXW.T.{.+X~.@XhXfXF pXc.p u p c p ..JX*XK.XXD F Y K F a K pXE F.*Xy 5 2 & = 2 !.JX+.zXqX!.uXeX2X>XE.hXdX",
"xXC m P ) p S U 3 E HXuXT.P.Y.OX@X>X@X$XhXvX7.u g x e e c & ^ KXdXq A P ` Y ~ M e D SX;Xo 4 e # 5 * % . !.JX2X+XeXgXdXfXgX1XR.yX",
"!.D D B / A ' ) B j ZX*XR.(.[.W.`.1X[.`.:XJXa i e 7 6 5 2 y & aX=Xl S ^ I D u k b * BXy.o p 5 5 3 > 2 O I JX^.[.0XjXjXuXyXuX[.*X"
};
