/* XPM */
static char *bf13e964faa8490caa9191a6ace4c3a1k5l4VHMspXAaRHxG[] = {
/* columns rows colors chars-per-pixel */
"64 64 256 2 ",
"   c #1B0100",
".  c #160601",
"X  c #040019",
"o  c #10070B",
"O  c #240000",
"+  c #2C0102",
"@  c #270605",
"#  c #320102",
"$  c #390705",
"%  c #261600",
"&  c #390415",
"*  c #341211",
"=  c #2B2400",
"-  c #3A2900",
";  c #3A3701",
":  c #31370A",
">  c #000824",
",  c #001629",
"<  c #37292E",
"1  c #1D2926",
"2  c #440101",
"3  c #490507",
"4  c #530102",
"5  c #5C0102",
"6  c #57060A",
"7  c #451404",
"8  c #4A0615",
"9  c #570717",
"0  c #501611",
"q  c #650509",
"w  c #670D13",
"e  c #482901",
"r  c #523309",
"t  c #4C1029",
"y  c #4D3030",
"u  c #63241B",
"i  c #224E2F",
"p  c #464503",
"a  c #554901",
"s  c #585705",
"d  c #515012",
"f  c #6C5105",
"g  c #786705",
"h  c #6F6D0F",
"j  c #524D2E",
"k  c #6D5630",
"l  c #746E2D",
"z  c #5C692A",
"x  c #09384E",
"c  c #201C49",
"v  c #084958",
"b  c #125172",
"n  c #25526B",
"m  c #2F6B76",
"M  c #2B5D5A",
"N  c #52534D",
"B  c #6D5056",
"V  c #736B4E",
"C  c #73716D",
"Z  c #505E6A",
"A  c #5A2F43",
"S  c #A65914",
"D  c #AD7105",
"F  c #8B7129",
"G  c #9A5F25",
"H  c #8C7154",
"J  c #8C7371",
"K  c #AD7A6D",
"L  c #9E6853",
"P  c #7D8124",
"I  c #039374",
"U  c #528B73",
"Y  c #628F76",
"T  c #8A8C04",
"R  c #AA9900",
"E  c #B39B00",
"W  c #B99902",
"Q  c #AE8D0C",
"!  c #B4A201",
"~  c #BAA402",
"^  c #BDAB02",
"/  c #B6A903",
"(  c #BCB602",
")  c #B4AC0F",
"_  c #969328",
"`  c #B0B12E",
"'  c #A9952D",
"]  c #C4AC05",
"[  c #C5B605",
"{  c #C3A415",
"}  c #D1B913",
"|  c #D1B210",
" . c #ECB211",
".. c #CFB82C",
"X. c #F4B52B",
"o. c #CD9217",
"O. c #BBC72C",
"+. c #D7C906",
"@. c #D5CD11",
"#. c #E3D918",
"$. c #EAD214",
"%. c #DCE902",
"&. c #DCE80D",
"*. c #E9EA03",
"=. c #ECF406",
"-. c #FEFE04",
";. c #FDFC0C",
":. c #F4F909",
">. c #EAE918",
",. c #F6EC1A",
"<. c #EBF416",
"1. c #FDFD14",
"2. c #F4F41C",
"3. c #FBF51C",
"4. c #F5FB1C",
"5. c #FEFD1C",
"6. c #F8F614",
"7. c #F9E200",
"8. c #D1CE2F",
"9. c #E6D724",
"0. c #F8D82B",
"q. c #FBDA39",
"w. c #EFD231",
"e. c #DEEB2F",
"r. c #ECE727",
"t. c #F2EE25",
"y. c #F4EC2B",
"u. c #F8E92A",
"i. c #EAF427",
"p. c #F4F323",
"a. c #FBF524",
"s. c #F5FC24",
"d. c #FDFC24",
"f. c #F5F32C",
"g. c #FCF52B",
"h. c #F5FA2B",
"j. c #FDFB2C",
"k. c #EBEA37",
"l. c #FCED33",
"z. c #F7E938",
"x. c #F5F433",
"c. c #FDF533",
"v. c #FEFB33",
"b. c #FDF53B",
"n. c #FFFD3B",
"m. c #F5FC38",
"M. c #ECF837",
"N. c #948A4F",
"B. c #B9B34F",
"V. c #8F8D71",
"C. c #A9925F",
"Z. c #CCB550",
"A. c #CDA673",
"S. c #E19F5A",
"D. c #D6D847",
"F. c #D1CA50",
"G. c #F8D847",
"H. c #F8DC5A",
"J. c #EECD4D",
"K. c #E9E849",
"L. c #FEEB42",
"P. c #F9E94A",
"I. c #FEF443",
"U. c #FFFE43",
"Y. c #FEF44C",
"T. c #FFFD4C",
"R. c #F5F945",
"E. c #E9E958",
"W. c #FCEA58",
"Q. c #FDF452",
"!. c #FFFD53",
"~. c #FEFE5C",
"^. c #FAF45A",
"/. c #ECF94C",
"(. c #D3CD69",
"). c #ECCF6C",
"_. c #FAE866",
"`. c #FFFD63",
"'. c #FFFD6C",
"]. c #FAF566",
"[. c #FDFB75",
"{. c #F1E973",
"}. c #DAE456",
"|. c #337787",
" X c #177194",
".X c #446B94",
"XX c #847684",
"oX c #B0758F",
"OX c #847DA6",
"+X c #26949D",
"@X c #6F8D8F",
"#X c #58ACB2",
"$X c #5E9C9F",
"%X c #37B0C6",
"&X c #52B1CD",
"*X c #62B1DE",
"=X c #57C9D3",
"-X c #6CCDD4",
";X c #70D4F2",
":X c #70EFF8",
">X c #53E6F6",
",X c #45C9C1",
"<X c #988F84",
"1X c #A99697",
"2X c #90B295",
"3X c #94B0AB",
"4X c #B4B1AF",
"5X c #A094A3",
"6X c #F79A8F",
"7X c #D2B38C",
"8X c #ECB192",
"9X c #F093AB",
"0X c #F3ABAE",
"qX c #CF929B",
"wX c #ABC9BB",
"eX c #F7CB89",
"rX c #FEF08F",
"tX c #CFCEB3",
"yX c #F9F3B0",
"uX c #E5CA95",
"iX c #B3B0DD",
"pX c #F999CA",
"aX c #F4ACCC",
"sX c #CBB4D8",
"dX c #89EBF9",
"fX c #A2D7E0",
"gX c #CECAC7",
"hX c #E9DDD2",
"jX c #F8FACA",
"kX c #E8E7DB",
"lX c #EBFBDA",
"zX c #FEFFDD",
"xX c #FCF9D7",
"cX c #F6EED7",
"vX c #DBCFF4",
"bX c #F4D9F6",
"nX c #DAFCFB",
"mX c #D0ECED",
"MX c #E8E9E6",
"NX c #F9EAE9",
"BX c #EAF9EA",
"VX c #FDFFE4",
"CX c #FEFDEB",
"ZX c #F7F7EA",
"AX c #EBEAF9",
"SX c #FDECFF",
"DX c #F7E9FB",
"FX c #EAF8FB",
"GX c #FCF6F5",
"HX c #FDFEF4",
"JX c #F5F4FE",
"KX c #FEF5FE",
"LX c #F4FEFF",
"PX c #FDFCFE",
"IX c #F4F9F2",
"UX c #D8E6D9",
/* pixels */
"j.g.g.v.v.j.v.h.f.v.p.n.h.v.2.n.l.U.n.j.3.j.t.b.b.v.6.d.d.y.n.v.!.b.r.j.d.6.d.f.y.v.v.d.j.n.,.j.n.#.n.n.U.n.n.g.h.d.5.d.j.c.b.I.",
"g.v.g.j.g.v.g.v.j.n.p.g.,.v.p.<.v.x.c.v.j.v.t.n.x.a.d.d.j.h.g.>.y.n.v.n.6.5.d.h.U.c.v.f.t.v.v.s.v.2.j.f.y.y.x.t.v.d.j.h.h.j.v.c.",
"v.v.v.v.j.g.j.g.d.j.d.d.2.v.d.2.n.>.j.n.U.n.f.d.v.h.n.n.g.j.j.j.v.f.v.6.2.h.a.d.a.b.~.!.x.g.v.a.d.j.d.v.j.v.U.n.v.c.c.v.j.h.d.d.",
"x.c.v.h.j.j.h.d.j.2.d.v.2.2.d.v.n.>.n.U.k.Q.v.1.1.t.Y.z.r.2.6.j.U.*.d.>.!.x.v.5.<.I.D.8.Y.h.d.v.<.d.<.d.h.j.v.x.b.I.b.m.j.s.5.5.",
"c.c.c.v.j.h.d.d.j.d.j.j.v.f.g.c.n.2.v.9.T E.n.;.*.c.`.'.U.5.=.h.v.=.d.v.P.Q.n.=.d.!.g a R.n.4.j.U.n.v.j.d.h.j.f.m.I.R.b.c.h.5.1.",
"c.v.h.v.g.d.d.h.a.v.v.r.T.U.U.I.c.d.d.) e (.R.-.-.~.).(.~.d.4.n.>.d.4.R.g B.U.:.4.`.a % ].v.<.v.^.8.Y.n.j.5.d.j.c.b.I.b.b.g.d.5.",
"c.v.g.g.j.d.d.g.p.c.b.k.!.) ) '.x.h.d.)   ).R.-.-.!.h g K.<.6.v.M.j.2.K.e s Q.1.*.[.l ; [.d.=.v.' a J.k.h.*.1.d.h.v.I.I.b.v.d.d.",
"m.v.j.j.j.h.j.v.v.x.U.!.K.r a W.x.h.j.F.  yXY.-.-.R.- r W.d.h.c.!.&.v.'.l % ^.:.5.[.k e ].4.4.4.f   {.Q.U.6.1.5.5.v.b.b.R.b.v.j.",
"v.n.I.b.g.5.d.c.Q.P.U.=.d.P . hXi.T.{.V . l }.8.~.B.o F.R.d.<.v.q.U.b.^.).. ) R.O.N.< < N.D./.e.% _ i.1.:.n.Y.L.b.3.5.d.b.b.c.d.",
"h.c.I.b.j.5.5.c.T.T.>.4.n.k.. V @.s < <XN.l s p z p h '.R.U.d.:.!.p.t.k.{.s p s p V.5X<XV s p : o rX~.%.1.t.b.!.c.5.3.g.c.b.c.d.",
"h.j.b.c.d.5.5.j.n.y.T.&.R.E.h . l wXJXPXMXCXPXKX4Xj r ].!.9.d.d.2.d.h.R.B.= V tXPXJXvXAXCXCXsXZ ; (.K.T.<.p.U.x.g.a.5.d.c.c.j.d.",
"d.j.j.c.g.d.d.d.p.s.m.R.E.B.; tXPXLXLXJXJXJXPXMXPXKXV.; ^.s.2.d.1.&.!.B.- vXAXPXPXPXPXLXAXDXKXJX7X= (.K.!.n.p.2.d.d.d.g.j.g.d.5.",
"d.d.g.j.v.g.j.5.*.R.&.].(.; tXCXBXlXlXLXFXAXAXVXlXHXKXgX= '.I.<.:.M.B.% PXPXJXIXHXlXMXLXPXJXPXVXhXtX; (.].M.s.5.d.j.c.c.g.g.d.d.",
"j.d.d.c.b.b.g.5.5.%.`.rX= MXHXVXyXVXLXFXJXLXLXIXCXcXHXSXiXd K.5.s.D.= SXPXvXPXIXVXzXCXPXPXAXVXyXlXcXtX; {.T.4.1.d.c.I.b.c.d.d.d.",
"g.d.g.c.I.Y.v.4.5.%./.l 4XPXMXPXHXNXPXHXHXIXJXPXPXZXhXKXDXB F.<.E.P 5XJXIXIXMXFXAXIXlXGXKXKXHXjXZXGXPXC N./.d.*.d.b.Q.I.c.g.a.g.",
"c.j.j.c.I.Q.b.4.:.4.8.d KXAXPXIXSXKXzXjXHXJXJXgXtXkXPXPXCXyXp rX(.: PXCXxXyX<XOX5XMXCXHXPXKXPXCXZXPXAXbXd 8.4.;.d.I.W.Y.c.g.g.c.",
"l.b.b.j.d.v.v.5.s.].V 4XGXxXzXFXjXCXLXLXPX<X|.b b n @XCXCXlXz 7XJ <XlXVXqXc I I I x #XPXNXcXcXPXPXVXxXVXXXN.^.4.d.i.g.d.3.p.j.d.",
"v.I.U.d.5.g.g.4.d.E.V UXCXxXVXPXCXGXJXFX$X.X#XdX;X-Xm @XBXCXtXk C kXVXwXn *XdX,X-X*Xn iXPXVXPXKXPXIXxXHX4Xk ^.s.d.x.c.d.3.g.v.5.",
"g.c.c.d.3.a.v.d.v.D.V KXGXxXVXPXSXSXPXmXb &X&X%X X=X=Xm 3XIXNXy Z PXVXM =X*X.Xv I #X&Xn nXnXLXSXPXHXzXHXKXj E.d.2.b.b.j.a.n.n.>.",
"g.x.c.j.5.h.v.d.v.` V KXPXzXIXPXSXKXPX@X+XdX X> , x ;X$X@XLXNXy @XPXwXv :Xb > X X n dXv fXnXPXSXJXLXVXGXPXj D.h.s.x.U.h.g.U.f.+.",
"b.U.n.v.d.g.x.d.j.` V.KXPXVXHXJXLXZXzXM -X*X> o o > .X-XM zXkXc oXDX2XU #Xx , % + c &X+X2XlXLXPXJXHXVXNXPXV ` d.h.I.b.g.g.U.r./ ",
"y.k.r.c.v.n.x.s.v.` <XSXPXVXHXJXLXVXxXM -X|.X 8 $ X b :Xi jXHXn 5XSX2XU -Xx , . # > -XI @XNXGXPXJXLXVXMXKXV ` v.h.x.b.g.g.U.r.( ",
"[ ) [ >.g.U.I.j.v.` V.SXPXzXIXLXJXPXlXY +X=X, + O >  X=XY xXSXc 5XPXtX1 ;Xb > X . x :Xv wXJXKXLXJXHXVXZXKXV ` d.d.x.b.j.d.n.g.+.",
"^ R / @.c.U.b.h.U.` C KXGXzXkXPXSXNXkXwX+X:Xn . . v >X%XY zXbXc b KXKXm ,X>Xb & M -X%X+XLXPXJXKXPXHXxXCXPXj 8.d.s.n.U.j.a.v.n.d.",
"| W W ..^.M.<.s.m.E.h zXPXAXPXFXzXCXJXmX+X+X-X=X&X:X*X XnXwXp a s s @XmXb *X;X;XdX$Xv fXLXIXGXCXLXPXAXPXhXf {.U.h.j.r.!.k.m.s.<.",
"] W ! w.!.n.s.d.>.^.F 7XHXNXPXPXCXGXAXFXnX$Xm $X#Xm  XAXUX: ` '.`.J.s V.fXx |.|.x U 2XFXPXKXKXHXKXKXKXGXH _ _.q.c.n.u.b.l.n.j.s.",
"+.[ @.K.T.v.a.d.U.W.o.G 6X0XCXNXcXKXPXAXPXnXwX@X@X3XMXGXp _ `.&.;.v.W.p VXBX3X@X3XkXPXPXDXKXPXPXNX8XL S D D o.G.q.b.u.3.a.n.x.I.",
"g.y.y.v.c.g.g.l.0. .S S S.G S eXZXGXGXKXJXLXLXkXHXkXGXVXr F.k.d.-.5.^.a tXCXHXCXCXCXPXKXPXPXPXPX0XG X.J.q.q.X.D X.l.d.6.1.v.z.^.",
"n.h.h.j.s.v.U.q.D o.G.W.X.J.X.S jXcXZXPXPXAXPXPXIXPXIXCXz (.`.M.d.i.rXs <XHXMXHXCXkXHXKXPXPXIXIXD J.G.P.Q 0.P.G.|  .g.1.1.d.k.~.",
"h.t.d.d.2.n.L.} D 0.Q. . .].P...C.VXHXMXPXPXIXIXBXIXPXkXd B./.k.s./.}.z BXLXPXPXHXHXPXGXIXIXCXtXQ '.q.q.I.I.L. .| ] c.d.j.h.M.R.",
"b.t.d.5.6.n.q.Q G.o.l.v.a.a.l.9.J xXKXDXPXPXIXIXIXlXkXV.d ' n.d.,.T.[.o Y FXLXLXZXZXGXKXKXPXHX<X] z.`.W.G.D 0.] 0.W l.Y.b.c.s.s.",
"T.p.5.5.2.U.P.Q _.G.u.~ ;.=.v.M.qXNXSXKXKXPXHXlXBX4Xj N.yXR a.-.;.v.g h C N MXIXHXHXKXKXSXbXKX1X! b.) Q H.W.z.l.v.W G.W.Q.b.d.;.",
"n.y.f.d.5.j.q.W L.a.4.l.W.8.d.=.g F V.vXvXvXiX3Xj P 8.v.j.3.u.b.rX) T e.[._ a z 4XvXbXSXvX1XN d R T.rXl e 8.k.P.W.{ w.I.Y.I.4.:.",
"v.x.f.a.5.g.w.{ Y.v.v.k.Q 8.e.<.K...' h k l l T e.i.s.5.d.g.c.L.M.( @.n.m.R.E.` h a s s s h ` /.m.^.C.r s ) k.`...| z.I.l.b.s.5.",
"j.x.g.d.3.g.z...} v.c.R = (.[.!.m.h.h.M.s.j.d.6.4.:.:.<.3.c.I.U.4.d.d.>.s.v.v.2.>.m.i.&.i.m.i.h.P.F -   ` Y.x.9.| $.I.g.y.b.h.d.",
"d.h.v.d.5.v.Q.K.8.t.U.K.= % h E.i.h.j.4.6.d.v.n.b.Y.Y.Y.I.c.h.s.j.U.b.r.U.b.f.U.d.1.h.j.i.~.'.` r $ # $ ).U.g.@.w.l.g.6.j.U.M.<.",
"d.h.v.j.d.v.!.Q.~.2.@.'.N.. % = ) D.~.T.x.,.,.u.l.I.Q.Y.I.v.d.5.l.,.b.!.b.b.U.r.r.U.k.Q.[.Z.e @ # 3 t r W.j.d.t.Y.b.,.;.d.n.n.M.",
"h.g.v.v.2.a.I.L.#.5.d.`.A.@ - @ o e F F.!.U.j.;.;.-.*.=.d.d.j.j.6.3.5.6.6.d.v.i.m.^.[.Z.r $ e 0 u 8 # F !.d.6.m.Y.b.6.1.5.p.U.U.",
"g.x.n.v.s.p.b.z.v.-.*.!.eX7 2 e 8 + O - g ` e.R.v.d.5.5.d.j.c.z.u.n.<.%.s.h.h.T.].Z.f $ 6 u 4 # 2 3 3 Z.y.=.*.!.W.L.3.5.1.>.T.k.",
"h.i.n.n.a.d.n.c.;.-.-.I.uXG 7 7 $ & 0 & @ . : z ` 8./.T.U.b.I.!.'.K.T.T.s.&./ T r @ @ & t 3 8 9 4 0 $ H.j.5.=.m.].P.3.5.6.p.U.( ",
"v.j.g.g.g.c.b.c.d.1.:.3.Q.Z.O t 8 8 9 9 9 9 8   . : : p z z N.' N.N.V z < j C O 2 6 q 4 4 6 3 8 t # g ^.v.6.1.d.v.v.f.g.U.r./ ! ",
"c.g.d.d.j.c.b.c.d.5.;.5.Y.F.e * 2 6 5 q 9 4 6 $ y hXwXV.V z y o   % V <XtXBXJXN # 8 5 5 q 4 3 6 8 # ' ^.j.5.d.s.v.n.a.h.v.#.! ) ",
"c.g.j.d.j.c.b.b.g.d.;.5.b.[.F O 3 q 4 q q 4 9 8 * KXPXPXLXPX1X@ * r lXHXLXLXMX< @ $ 6 5 q 4 4 6 $ - ).!.p.d.j.p.h.v.v.j.t.+.! ) ",
"b.v.j.d.d.v.b.b.g.d.1.5.u.].Z.@ 4 u 2 5 w 6 9 & B PXJXJXFXPXXXo * y PXPXnXLXLXZ @ 8 3 4 5 5 6 w O g ].b.s.d.j.f.f.c.v.d.#.] E { ",
"I.c.j.a.d.j.b.b.c.g.6.5.a.Y._.f # 0 $ 8 9 9 t @ J SXJXLXLXIXC * * * KXDXFXLXLXC . 0 4 2 4 w 6 4 % F.L.c.d.h.p.n.x.c.v.d.+./ E { ",
"I.c.d.5.a.g.b.I.b.g.3.1.5.g.~.) @ @ 8 9 8 9 8 & C kXZXIXIXIXV % * t NXJXPXPXMXoXO 3 4 2 4 6 2 # g '.r.h.v.s.i.U.b.f.d.5.+.~ ~ { ",
"I.b.j.5.5.g.b.I.z.c.d.:.d.2.U.z.B O 7 w 4 q 9 8 + y y y V J y & O @ J J B A < # 2 4 5 5 3 $ $ t @.!.f.4.d.p.x.U.U.f.d.d.+.] { { ",
"I.b.g.5.d.j.b.I.b.n.j.*.5.6.a.n.7X$ 3 5 4 w 5 6 & & * & & & # 8 u O @   * * O 8 9 5 5 5 6 + * C R.y.d.<.d.i.U.T.T.t.d.5.+.] { ' ",
"g.v.h.t.v.v.c.b.c.n.n.g.c.v.v.p.rXF $ # 7 7 9 3 6 9 w 3 4 9 9 8 8 & 8 8 8 8 8 3 6 $ 2 u 3 # f yXb.c.c.c.g.g.g.g.f.l.I.T.k.^ ! / ",
"h.v.c.v.n.y.#.+.+.#.r.c.v.v.v.h.~.H.f $ $ u & t 3 + + $ 7 $ # & & & # 0 0 2 $ 8 t 8 & $ # f ..'.x.g.g.g.v.v.v.v.v.g.c.b.b.9.[ R ",
"c.f.n.n.l.@.( ! ! [ #.x.U.c.f.v.;.n.J.e # & t o * H A.A.C.oXB & A oX8X8X8XeXH   @ t A @ - 8.U.%.j.g.g.g.j.j.j.g.v.c.f.l.b.b.9.( ",
"n.x.x.b.9.[ ! ~ E ! } z.U.x.f.n.:.1.x._.e O t qXaXaX0X9X0XaX9XoX9X9X0X0XqX9X0XaXt t   - F.R.%.5.v.j.g.g.j.j.g.a.a.j.v.v.v.v.f.r.",
"v.f.c.l.} ! ~ { ] E ^ w.I.c.y.v.s.i.T.K._.f r K aXaXpXpX9X9X6X6X0X0X9X9XaXaXaXpXy   f _.P.M.n.p.d.g.j.v.v.v.v.v.c.g.v.n.v.y.g.n.",
"g.g.U.l.[ R ] ~ ] E ! 9.b.c.g.j.M.!.r.M.U.'.Q r k qXaXaXpXpX0X6X6X6X0XaXaXqXJ $ e ..`.!.U.n.y.z.g.g.v.g.y.t.r.r.n.f.l.v.v.g.g.v.",
"g.a.n.u./ ~ ] E ~ ! ] #.b.v.g.g.U.>.v.a.,.r.!.Q.Q f e k L C.K qX7XK L k - . a ' ~.m.>.>.v.j.f.n.g.n.n.u.@.( ( ( l.x.l.x.c.v.j.g.",
"d.a.j.#.! ] } E ~ ~ } u.n.v.d.3.7.d.5.3.v.s.&.s.m./.e.B.' l N j y y k l ` D./.M.e.e.M.m.i.s.d.4.c.v.b.r.+.! R / @.z.U.c.y.v.v.g.",
"f.c.b.u.} R E } W ] 9.k.b.b.n.v.v.v.g.c.v.g.r.#.c.g.5.5.6.3.;.-.6.1.a.b.~.].H.J.H.H.W.I.v.d.;.-.g.n.U.} R W ! ^ } l.b.g.g.d.g.v.",
"v.c.n.b.#.^ R E E } 0.I.I.b.v.g.d.d.h.v.b.I.P.G.J.H.{.rXrX).).).J.H._.H.G.J.w.G.P.L.z.c.v.j.d.a.g.c.l.[ / } ) R @.c.n.g.g.g.g.c.",
"j.j.v.n.u.@.] [ @.9.b.U.n.v.g.j.d.d.a.c.I.Q.W._.J.).).7X8XeX8X7XA.8XeX).J.w.k.I.j.d.d.d.c.v.x.m.v.g.r.] E } ~ ! 9.c.v.a.g.j.g.v.",
"j.a.g.v.c.y.r.r.l.c.c.c.g.a.h.j.v.g.x.c.n.b.I.b.Y.P.w.w.q.L.P.Q.eX).).J.H.P.I.v.v.d.d.d.h.v.m.b.j.g.l.( R R / } z.c.c.a.v.v.g.c.",
"j.d.g.j.j.v.v.n.n.v.v.g.g.j.d.j.v.c.g.g.g.d.d.5.d.5.3.5.d.d.5.1.~.Y.z.b.Y.U.b.u.n.v.c.j.h.j.j.d.d.g.v.@./ ( +.r.g.v.g.3.j.v.c.b.",
"g.g.v.v.j.h.g.v.v.f.s.j.v.v.j.g.j.d.d.d.a.a.a.g.p.g.f.c.b.b.z.z.;.1.5.d.j.c.b.b.b.b.b.c.v.v.d.d.j.a.v.t.r.z.r.l.g.j.d.a.j.v.g.n.",
"g.c.v.j.h.h.i.h.h.h.h.v.v.v.c.g.g.g.g.j.g.g.g.j.n.U.I.L.R.Y.~.~.=.6.d.d.d.h.v.n.c.c.c.c.v.v.c.c.d.3.j.c.n.U.v.v.j.d.d.5.j.v.l.b.",
"n.c.f.f.h.v.n.v.h.v.v.g.f.g.c.c.b.c.n.c.j.d.d.d.2.6.4.3.d.a.d.j.R.m.m.v.j.d.5.4.5.d.j.c.c.b.I.L.d.2.j.j.c.v.p.v.a.d.d.d.j.v.f.I."
};
