/* XPM */
static char *_2e41c704f784272be8e96f03261c630rJUAuoryidsiGbz0[] = {
/* columns rows colors chars-per-pixel */
"64 64 256 2 ",
"   c #020202",
".  c #0B0102",
"X  c #010C02",
"o  c #02020B",
"O  c #0A0A0A",
"+  c #160706",
"@  c #07140B",
"#  c #19170B",
"$  c #040714",
"%  c #160B17",
"&  c #081415",
"*  c #181817",
"=  c #261A17",
"-  c #291511",
";  c #182211",
":  c #2B2818",
">  c #181826",
",  c #0E0F28",
"<  c #271B27",
"1  c #321431",
"2  c #1C2723",
"3  c #1B2433",
"4  c #272727",
"5  c #34322D",
"6  c #2B2833",
"7  c #373938",
"8  c #302F2F",
"9  c #453837",
"0  c #4F3633",
"q  c #582D1A",
"w  c #2F493A",
"e  c #4A483A",
"r  c #6E4D18",
"t  c #393944",
"y  c #2D3144",
"u  c #473946",
"i  c #02595A",
"p  c #094F53",
"a  c #374245",
"s  c #04665B",
"d  c #14685A",
"f  c #055B66",
"g  c #0E5C6A",
"h  c #026668",
"j  c #026875",
"k  c #047677",
"l  c #136F6E",
"z  c #2C7172",
"x  c #31525D",
"c  c #484647",
"v  c #564847",
"b  c #56544C",
"n  c #4A5757",
"m  c #585958",
"M  c #4D4F4D",
"N  c #645B59",
"B  c #624B55",
"V  c #576859",
"C  c #6E6C59",
"Z  c #545569",
"A  c #675B69",
"S  c #546E6F",
"D  c #676768",
"F  c #736969",
"G  c #797879",
"H  c #6F6F72",
"J  c #965506",
"K  c #884D07",
"L  c #A6540B",
"P  c #AE6F15",
"I  c #8F6D32",
"U  c #AA7230",
"Y  c #9B6506",
"T  c #C5750C",
"R  c #C47226",
"E  c #887974",
"W  c #B0794E",
"Q  c #9B2F00",
"!  c #008274",
"~  c #39817C",
"^  c #4B8678",
"/  c #768777",
"(  c #C38C2D",
")  c #B28F4D",
"_  c #848579",
"`  c #978E77",
"'  c #B3956C",
"]  c #BCA675",
"[  c #CFA66B",
"{  c #B58435",
"}  c #0739A7",
"|  c #0B4A97",
" . c #2A569C",
".. c #097588",
"X. c #30758E",
"o. c #0748B5",
"O. c #1151B0",
"+. c #2859AE",
"@. c #3869B9",
"#. c #316BB2",
"$. c #1867B3",
"%. c #477885",
"&. c #7C7A86",
"*. c #687683",
"=. c #4D72B3",
"-. c #6B7CAB",
";. c #0A55CA",
":. c #2F5BCA",
">. c #1168CF",
",. c #326FCE",
"<. c #3474E5",
"1. c #1764E5",
"2. c #4777C6",
"3. c #4F75D0",
"4. c #667ACA",
"5. c #4D79E8",
"6. c #697FF7",
"7. c #897D87",
"8. c #098689",
"9. c #368786",
"0. c #2D8A91",
"q. c #3E9BA2",
"w. c #4E8F92",
"e. c #728E91",
"r. c #68A59A",
"t. c #5590AD",
"y. c #7697B9",
"u. c #6E8FB0",
"i. c #50ACAA",
"p. c #74ADB0",
"a. c #4BA69F",
"s. c #3084E0",
"d. c #5A88D3",
"f. c #5386CC",
"g. c #6488C8",
"h. c #7999C8",
"j. c #678AD6",
"k. c #7392CF",
"l. c #79AACE",
"z. c #4C89EE",
"x. c #7294E4",
"c. c #75A5EA",
"v. c #78C2B1",
"b. c #888888",
"n. c #979788",
"m. c #8B9897",
"M. c #989897",
"N. c #8D8D90",
"B. c #A69692",
"V. c #93A898",
"C. c #A5A49A",
"Z. c #B1AE98",
"A. c #8E97B1",
"S. c #A89CA3",
"D. c #99A6A5",
"F. c #99A9B6",
"G. c #98B8B8",
"H. c #8CB3AF",
"J. c #A8A8A7",
"K. c #B6AAA8",
"L. c #AAB5AA",
"P. c #B7B4AB",
"I. c #A9A9B4",
"U. c #A9B7B9",
"Y. c #B7B7B7",
"T. c #B5ACB6",
"R. c #CAB493",
"E. c #C6BAB8",
"W. c #CDB7AB",
"Q. c #D6B399",
"!. c #98C5B6",
"~. c #B9C4B8",
"^. c #A9C7B7",
"/. c #C8C6AA",
"(. c #C3C3BC",
"). c #C9C8B9",
"_. c #D5C7BB",
"`. c #D4D3B5",
"'. c #E9D2B4",
"]. c #F3C895",
"[. c #859BC9",
"{. c #8C9AD2",
"}. c #9AB8C6",
"|. c #88A8D7",
" X c #96A7D7",
".X c #92ADCD",
"XX c #A6B9C7",
"oX c #B9BBC5",
"OX c #A9B9D6",
"+X c #B6BAD7",
"@X c #A7ABCC",
"#X c #93AFEE",
"$X c #ADBAE8",
"%X c #869FE2",
"&X c #C6BBC5",
"*X c #C7B6CE",
"=X c #C7BCE9",
"-X c #95C8CA",
";X c #A8C8C7",
":X c #BAC8C6",
">X c #A8C8D6",
",X c #B9C8D7",
"<X c #BBD6D7",
"1X c #B3D5CF",
"2X c #B6C8E6",
"3X c #B9D5E7",
"4X c #B1CDF2",
"5X c #B5E4EF",
"6X c #A8D3E0",
"7X c #C4C4C4",
"8X c #CCCCCC",
"9X c #C8C9C6",
"0X c #D6C9C9",
"qX c #C8D4C9",
"wX c #D7D6C8",
"eX c #C7C9D8",
"rX c #D6CCD6",
"tX c #CAD7D7",
"yX c #D3D5D3",
"uX c #DCDCDB",
"iX c #D7D8D7",
"pX c #E6D8C9",
"aX c #E5D9D7",
"sX c #F1D8D2",
"dX c #D7E3CA",
"fX c #CBE3DA",
"gX c #D7E4D8",
"hX c #D4EBD6",
"jX c #E3E3DC",
"kX c #E8E8D8",
"lX c #F5E6D8",
"zX c #EFEED2",
"xX c #C5CAE5",
"cX c #C9D8E5",
"vX c #D8D9E7",
"bX c #C9D8F6",
"nX c #D5DAF9",
"mX c #CFCCF1",
"MX c #E7DAE6",
"NX c #ECDBEF",
"BX c #C8E4E7",
"VX c #D9E6E8",
"CX c #D9E9F9",
"ZX c #D2F1F2",
"AX c #EBECEB",
"SX c #E6E7E6",
"DX c #F8EBE6",
"FX c #E8F6EA",
"GX c #F8F6E9",
"HX c #E9EAF7",
"JX c #F9EBF6",
"KX c #E8F7FA",
"LX c #F3F4F4",
"PX c #F4FEFE",
"IX c #FCFDFD",
"UX c #FAF6F8",
/* pixels */
"F.A.=XM.= O G 0XJ K r W.E .   b.iX XOXaXu.{.rXZ.ZXC.Y.pX9XoX,XwXR._.CXcXvXhX8XtXkX(.pX1X;XaXiXvXrXN..   m (.' P W Q.H o O m JXaX",
"c.+.-.8XZ.M.yX' K K K ' E.b.J.MXy.>.h.^.O.O.A.qXN.% B cX:. .I.] J I Y.X.:.<XE % G vX0X@.+.,X X@.j.IX&.4 J.lXK J K '.U.> 9 tX Xj.",
"{.@.@.U.AXVX_.U J J K I pXGXAXT.@.+.OX}.| o.u.UX# . 9XG.;.:.gXU L Y `.l.o.-.JX& $ 9X3XO.;.t.ZXf.@.h.DXIXAXU J L J I kXaXJX4X2.<.",
"A.k.@X0Xe > J.'.r K q Q.E.5 m uXy.,.u.(.O.| oX~.B.$ a tX=. .XX] Q U <X$.} =Xn.  C `.qX+.o. X4XO.d.HX9X&.aXQ.Y J J [ aX&XrXVXf.:.",
"uXAXvXZ & o _ W.) I W K.H o   D MXdX`.MX&XoXSX/.zXiXqXfXlXtXZXaXR.W.ZX2XMXGX~.}.DXeXaXxX[.kX<XHXZXI.O   m pXL P J Q.N.$ 8 9X+X#X",
"z z hXH + - P.HXsX` pXzXL.  $ H pXd r.T.:X:XY.p.e.MXI.2.mX&XN.$X<XOXoXC.VXk. XkXV.!.qX`.aX:X;XA.GXD . $ e._.W.W '.E.M.o o H LXfX",
"k d p.tXD P.wXB &.GX_ H jXL.5 rXA.p z rXE./.qXz p w.gX$.2.eXW.h.$.f.Z.R.l.:.OX;Xf $.1X9X8XfXt.g p.(.* 9 8XSX'.wXpXNXNXt . n.<Xl ",
"0.i p.lXsXgXV.. 7 gX4 o M.kXzXsXr.j z kX7 v kXX.f z gXf.;.g.GXp.o.$.FXOX>.=.zXt.h g AXE v FXa.j w.PX_.JXuX: 7 PX*.* wXLXJ.HXp.k ",
"<XS SX-.X.,XA   7 8X: X n :X4.k.BXx :X:X    P.(.S 9XXX=.<.;.OXY.} u.bXX.<.:.|.qXl p.aX- + T.3Xp G.>X$X+XN.+ + fXZ . _ uX2XxX;Xk ",
"D.HXA.:.3.rXM   m JXm o v :X+.$.L.BXY.7X. O M.yXfXrXpX5X#.=.h.jXI.BX2X,.@.#XtXzXBXtXiX4   m.FX:XBXf. .2XS . 5 NXV   a xX2.3.nXH.",
"Z.gX+X3.,.8XW.V E.OXXXu W.tX+.,.J.gXb.P.O   K._ tXM e 9XOXxXF.J._.~.@X[.2X:Xn.9 aXC.~.;   L.b.UX@X3.#.2XM.  E IXM.  H eX<.z.A.PX",
"0XD wX.X@XwXqXDX7X=.3XDX).BX.Xh.yXG yX).#   J.SXD . . 9XgX>XAX7.6 7 wXVXhXuX4 o M AX7X8 . M.lXJ.ZX#Xg.HXDXpXkX|.HXS.kXSXd.j.HXiX",
"v X b dX;Xd z &Xy.;.t.`.X.d rXrXD X G 0XO   E.J.    6 VXS l FXN.o # DXp.X.IXM o X b.JX= + T.yXX V xX3XG.e.vXF.<.x.JXV.-XbXeXJ.2 ",
"+ , 5 GXH.h f !.x.;.y.~.j j V.PX= . # SXb.N LX7   & J.BXg d p.lX* E vXk h U.aX%   2 vXM.8 HXm   # gXfXi j H.|.;.x.:Xk ..-XDX0 O ",
"O < /.V.,XX.s H.{.g.u.XXi 9.L.D.J.  4 ~.).yX9X:   / W.,Xw.p p.pX~.0XtXh s ~.iXF.  O Y.qXqXSXb   D 9X:X~ i r.$X@.h.H.k ..!.AXN   ",
":X&XlXY.jXsX:XaX~.kXrXtXU.:XwXK.LXJ.M.9XyXyXyXN.F zXL.).:Xy.1XL.uX).:Xr.H.MX_ KXb.N wX9XjX9XT.H VXJ.&X;Xr.>XoXbXoX<Xr.H.qXM.wXZ ",
"P.qXH / G I.0XW.XX%..XE.0X(.n.C.n.AX~.yXb.G aXiXJX~.Y.E.rXGX/.HX{.3XDXyXDX/.tX7XLXiXgXY.M.LX8XUX0XyX(.MXJXpXMX@XbXkXgXMXrXKXaXPX",
"0Xb X   O & L.).#.} @.8XP.3 o O   D 7XT.    M.8XJ.X       Y.qXA.O.#.Y.yXG X &   G yX(.4   M.8XL.* * & 6 (.:Xl.O.k.~.9XG > 4 = J.",
"aXc .   O + J.kX@.o.+.qXn.$ $     8 IXM.    F IXm     X $ &.JX-.>...aXyXo   $ o O AX7X    D IXm X X *   _ PX=.1.@.VX~.. * @ # > ",
"L.9Xb m c N.7XP.[.| y.(._.F 5 9 8 P.J.(.4 & P.P.7Xe 4 * n rXE..Xo. .&XeXE + 4 + b.9XY.8 O J.&XL.% - + 7 Y.&X|.o.4.eX).m + $ + G ",
":XP.jX~.0XSXeXuXaX;XyXwXiXuXlXyXSXUXjXuX8XP.SXiXNXgXAXiXKXfX).cX X2XaXcXKX_.SX0XLXgXjXY.S.SXuXIXSXaX_.iXHXyXHXh.4XpXBXKX&XMXoXUX",
"O = /.G Y.r.d F.B.gXC.Y.%.H.L.H uX8 M E.7XaXY.D u gXb.P.>X^ V.,XcX1XqXa.H.gXb.CXG N wXyXSX9Xb.D HXM.).5XS <X(.gXwXwXu.G.sXA.SXn.",
"  + b wXE.d s D.aXC.aXG.p l 1XSXN   * iXwXJ.LX4 o 7 gX:Xz f H.}.@.t.<Xi d !.qXn.O O 8XMX8XAX7   V jX,X0.i e.8X8XSXY.j 0.Y.&XC.  ",
"2   X _ NXd s OXC.$ S.^.s g qXB.    8 SXc 4 jXc X # sX;Xj j p.$X>.3.tXl f e.IXb   * jXb.c IXu O + B.KXX.h H.SX3 I.tX..k hXpX. , ",
"~.+ X > sXV.w.GXm   M FXS e.kX6     (.0X+ . Z.qX* / :X2X^./ UXOX,.4.wXH.w.cX=XL.o &.GX= + C.uX2 + ; HXm.X.KX`   e LXt.9.FXu . % ",
"I.n.  2 8XvXvX,XC 9 V hXtXCXtX;   E jXY.2 X D.E.eXVXc.+.cXGX&XgXl.:XSXSXSXOXj.ZX).iXuX2   M.LXJ.%   7XIXVXCX7.# u KXiXCXSX- & H ",
"F vXN.n.7Xk.k.A./.HXY.F.h. X2X/ C lXF ~.&   U.7.ZXA.,.;.$XS.. C HX~., B gX3.<.t.GXJ.~.a o V.S.lXb.D 9X[.+X XL.gXE.@X,X+XvXF m LX",
"yXY.SXeXA.#.>.[.aXg.HXoX:. .+XcXLXqXjX~.= . Y.LXV.ZX=. .4Xm O 2 JX_ ,   gXx.:.4X<X<XrX> o S.KXiXFXHXbX4.2.%XFX$XHX<X3.5.xXMXUXgX",
"~ p e.+X#.>.,.rXA.o.y.0X#.s.=.I.1Xd p.rX  % (.!.g H.vX,X;XD.O % ).b o M tX.XXXeXl w.UX:   7X-Xg H.tX=.,.1.4XvX$.y.VX<.z.4.2X<Xw.",
"l l z SXg.>.G.lXt.} g.IX-X$.5.UXS k l KX/ B GX0.j ~ GXW.FXwX- 4 hXb.  n.IXJXlX^.h k tXn.b AXa.k l FX#X,.#XPX|.o.x.FX}.1.j.JX0.k ",
"d i ,X@X| h.R.n.u.=.h.V.~.|. .G.G.s z :XqXpXyXz p ;XZ.  7 _.pXW.dX&XrXJXN.= b.tXf s qXtXqXVXi.h p.<X2.g.aXY.l.=.6.&X`.c.3.xXv.j ",
"~.+XFX<XU.MX&X~.vXCXSXW.7XNXF.#XFX;X;X8XwXpXrX>XH.DX7.$ o D dXiX) '.'.8XO O t FX;Xp.rXqXSX0X<XF.UX3X#XnX/.U.tXHX3XE.E.JX%X6XuXI.",
"E.pX/ A.DX*X{.>XW.) R.VX;XY.IXC.B.kX(.kX;X[.HX3X+X,X~.+ o Z '.P T P R.P.$   M VXcXNXFX>X.XSX0XGX:X7XGXkXbXCXpX] wXHX0XvXzX&XE.FX",
"oXS @ G $XO.| <X( L U <X .+.2Xe.o m VX,X .$. X.X>.f.CX/.E 0X'.( R P [ zXm.E FX4X@.u.5X:.O.A.vXD.+ v ZX#.+.:X[ J ) rX=.:.HX&.+ N.",
"dX%   R.>Xo.,.tXP L U VXz.} {.`.o # MX+X+.1.l.CX<.:.l.FXLXLX' T T T P ).PXUXxX4.,.OXeX;.;.h.IXv o 7X>XO.z.AX( L Y GXc.;. XpX# 1 ",
"K.U.2 m dXg.=..X[ J ( :X,.u.VXm * P.E.rX=.| ,XH.#.{.HXn.: S.'.P T T ].VXS F iXXX:.u.bX<.;.OX~.P.# v KXk.+.3X] L ) mX2.=.HXF > W.",
"aXkXuX0X0XzXiXAXVXqXhXgXhXLXJXlXkXSXqXGXeXxXAXZXAXlXG $ $ t _.{ T U R.D.o o G vXvXhXhXxX+XzXgXUXZXeXKXFXSXCXKXW.dXKXAXAXIXkXzXPX",
"X.%.<X.X@.3XC.e.@X,XXXJ.n.cX=.k.VXr.w.L.).iXP.p.9.ZXE .   M.IXGX' sXAXwX* . c GXp.p.1XcXSX).p.w.pXmXj.5XqXm.2XVXmX+XC.vXx.$XKXy.",
"i p / xX:.3.qXwXk.O.d.Y.yX3.,.CXr.i ..tXpXE.wX0.f r.SX4 / HXJ.b.zXP.b.GXC.: M.cXl s dXyXwXSXa.f e.nXf.#.VX0X[.#.k.).VXx.3.cXG.j ",
"l h z BXg.O.g.GXd.| t.IX[.>.f.iX^ p X.KXu 8 kXq.f e.kXFXGX9X. < KXC O e.LXlXFXG...0.GXN 6 UXq.h ! AXh.1.x.JX X;.f.PX$X:.x.IXz ! ",
"qXe.fXL.4.<.+.2X$X| ).+X>.=.=.>XhXe.8XiXO   P.yXd 1X#Xh.>Xb.+ < MXe   c cX.X XCX9.p.VX= . L.ZXw.1X9X6.5.1.XXtXO.G.nX,.z.4.4XcX^ ",
"M.SX~.yXcX=.g.{.gX,XKX X3.t.mXwXyXSX(.9X* O J.8X3X,X2.+.CXn   7 IX/   > ZXf.@.OXcXcXtX* . T.uXHXLXFXvXf.=.|.JX4XPXOX3.2.3XFXDXKX",
"n.W.* t oXvX+X>XB.P.b.oXcXvX*Xe ; iXb.Y.4   T./ AX*X<.,.U.&X7 L.HX~.# 7.fX@.z.F.IXT.Y.2   Y.7.lXF c ).1XZX#XK.8XJ.+X$XmXgXC 0 MX",
"pXe o > vX9X;XKXD # n zX^.^.lX7 O M UX8X*   I.AXn.VX#Xl.PXMXUXjXg.BXUXSXZX#Xd.KXM.qXyX4 % J.UXe.  + tXdX>XIXD # b JXcXVXyX5 . n ",
"M , 3 m vXz z gX7.  m kXk 0.zXV = * b.AX% o (.L.  M :XfXp.X.yX{.,.g.HXr.9.cXfXJ.X V AX4 . oXqX@ X 7 nXS ..HXB.  M LX9.~ IXv * ; ",
"y > 6 dXdXl k V.MXn oXL...../.UXu + 6 AXP.H IX7 % O zXqXj ! H.#X<.c.5X! 8.m.GXM   = aXM.m UXm O O *XFX..j p.JX8 ~.<X! ! HXMX+ 1 ",
"3 < T.Z.S.w.f H.aXtX&X^.k q.).M.T.> 4 oXMXiX9X7 . N.U.~.a.k p. Xd.[.6Xk k ;XP.L.. O yX9XuXAX9 . N.*X`.w.p H.aXiXjXU.k 0.eX9XJ.% ",
"U.E.FXU.NXSX!.3X`.tXaXnX;XqXfXP.LXJ.J.vXiXuXuXI.C.KXXXyXSX}.hX<XgXqXcXp.6XaXJ.ZXI.D.yXqXSX7XJ.e.FXoX8XsX-XdXeXHXeXtXr.fXrXD.PXD.",
"~.HXN.B.m.~.aX).3Xu.eXwX0XaXC.*XD.LXyXiXN.H iX7XFXJ.J.F.oXlX).bXg.-XW.0XiXJ.:XP.FXVXgXK.b.LXiXIXeX0XP.yXSX0XCXy.nXDXJXgXqXnX7XKX",
"(.S % = @ 6 T.wXg.@.=.eXiXn @ 6 O V vX~.% o M.yX_ . % o * K.tXy.o.=.tX:Xn @ & $ V yX7X2   N.rXoX2 O @ , oXHXh.O.k.~.8XH 4 < 4 M.",
"DXn $ + * % S.hX=.,.3.,XvX3 2 = 2 4 HXC.@ O F IXN o   * o 7.IX=.1.+.nX<X& * @ , 4 FXY.X   D IXm   X & o B.JX=.1.2.zX~., 3 < 6 e ",
"E.oXn b 9 b.vX~.@XX.y.(.0XN.9 b 8 L.J.8Xc 2 ~.Y.:Xa 7 4 A rX9X@X+.u.rXyX/ 5 7 4 L.8X7Xc $ M.8X7X9 t 4 m lXqX.X+.k.wXwXD 7 a 8 E.",
"wXVXKXkXY.KX5XtXMX1XhXiXVXAXDXHXgXiXiXtXyXyXuXyXVXKXgXgXHXVXgXnX2XtXwXBXKXaXkXyXLXiXSXtX:XSXiXIXJXJXSXFXPXVXcXxXKX*XLXKXtXLXVXIX",
"6 9 tXn.iXu.x H.OX2XXX1Xz r.~.S 8X7 M 9X8X8X8XH < @XC.Z.;Xz !.~.FXU.:Xw.t.eXS PXD 4 oXuXVX7XM.6 tXC.1X6Xz 6XcXCX1XvXw.!.gXN.LXA ",
"< + M GXH.l i G. X#. X>Xh 8.;XqXD   2 yXuX:XLX8   t aXiXz f r.GXM.gX1Xj ..XXPXb.o & tXiX:XSXc o 2 SXcXz h .X#X#.l.}.l k ^.JXH . ",
"7 o M jX1Xj h ;X X@.k.<Xk ..}.GX7 O 6 SXm 4 HXm X o F LXw...p.0X. D ZX8.h :X9X+ O * HXH & SXD . * aXbXh s -X#X>.x.<Xh ..}.IXn & ",
"0X7 Y.@XbX:XL.DX@X3.}.HX>X^.uX#XK.> ;XAX>   J.JX1 $ & tX!.~ GX&.+ 3 GX-Xw.PXN   O N.KX8   M.IX4 e.4X2X,Xm.FX2X3..XCXF.H.nX=XY.4 ",
"I.BXvXd.f.<XPXT.ZX XgX(.VXZXu.g.BXrX8XtX8 o J.gXY.    U.PXSXbX7.m D tX5XGXPXN o m SXVX6 o M.qXtXFX#Xj.nXKX7XvX|.AXeXSXIXj.c.IXBX",
"m.KXN.2.z.xXN.o e.IXN.. _ nX5.5.r.IXn.L.7   U._ fXn./ eX X=Xl.wXKXsXxXc.>X{.MXb.LXN.Y.t O J.N.FXU.,.<.bXJ.. F PXA.. E 3X3.5.[.KX",
"gXw.JXg.#.tXN X *.IXm % v nX3.2.bXXXVX0X: % I.LXtXlXCX2Xj.3.%XPXk.<XSX<.,.|.vXUXVXCXSX7   S.KXXXKXj.,.5XS X 9 UXA   9 vX,.5.KX-X",
"w.h }.nXbXtXN.# u uXn X ` tX,XBX3Xh l.HX5 . &XOXX.r.nX=.s.s.mXXX$.j.JXj.z.z.[.fX0.a.BX: . Y.6Xl l.ZX3X,XJ.$ % uXu X e.rX4XnX3Xk ",
"k 8.p.AXD.NXNX9 F IXm 4 qXKX/.PXH.! 8.LXb.V IXw.j j SX#X<.#XPX@X>.2.JXKX3.5.PXl.8.8.BXP.b IXi.k q.GXW.IXMX6 y PX7.. xXPXkXKXp.8.",
"k j <XD.O v vXkXrX_.MXcXnXA * M.BXk 0.nXyXVXtXw.j v.xX2.x.iXU.@Xu.j.3XZ.qX<.|.SXq.k cX8XSXiXa.s p.7X  8 pXAXwX`.pXrXUXC X T.~.8.",
";XtXGXH & # b.iXpX' wXVXR.> & H PX!.-XcXrXyX8X>Xr.JX4X.XBXrXoXBXAXBXqX}.LX2X4XdXcX!.rXtXCX*X6XF.GXI.$ o E AXwX[ wXsXT.  . u PX6X"
};
