/* XPM */
static char *_058108992c74462aff4a2802caa8bc5G0SiY9giG7lljQ8A[] = {
/* columns rows colors chars-per-pixel */
"64 64 9 1 ",
"  c None",
". c black",
"X c #3A3335",
"o c #D81E5B",
"O c #F0544F",
"+ c #938C2B",
"@ c #BAAAB1",
"# c #FFD4D4",
"$ c #FDF0D5",
/* pixels */
"++++$OOO$$$$XXXXXXXXXX$$$$OOOOOOOOOO$$$$$XXXXXXX$$$$OOOO$$$+@@@+",
"+++$$OOOXXXXXXXXXXX$$$$$$$OOOOOOOOOO$$$$$O$$$OOXXX$$$OOOO$$+++++",
"+++$OOO$XXXXXX$$$$$O$$$$$$$OOOOOOOOO$$$$OO$$OOOOXXXXX$$OO$$$++++",
"++++OOOXXXXXX$$O$$$OOO$$$$$OOOOOOOOO$$$$OO$$OOOOOXXXXX$$OO$$$+++",
"+++OOO$XXXXX@OOOO$$$OOO$$$$OOOOOOOOO$$$OOO$OOOOOOOXXXX$$OOOO$+++",
"+$OO$$XXXX$$OOOOOO$$OOOO$$$OOOOOOOOO$$OOOO$OOOOOOOOXXXX$$OOO$+++",
"OOOO$XXX$$$OOOOOOOO$$OOOO$$OOOOOOOOO$$OOOOOOOOOOOOOOXXXX$$OOO+$$",
"OOO$XXX$$$OOOOOOOOOOOOOOOO$OOOOOOOOO$$OOO$OOOOOOOOOOO$XX$$OOO$$$",
"OOOXXXX$$$OOOOOOOOOOO$OOOO$$OOOOOOO$$$OOO$OOOOOOOOOO$$$XX$$$OO$$",
"$$XXXX$$$$OOOOOOOOOOO$$OOO$$$OOOOO$$$$OOO$OOOOOOOOO$$$$XX$$$OOO$",
"$$XXXX$$$$$OOOOOOOOOO$$$OO$$$$OOO$$$$$OO$$OOOOOOOOO$$$$$XXX$OOOO",
"$XXXXXO$$$$$OOOOOOOOO$$$OO$$$$$O$$$$$$OO$$$OOOOOOO$$$$$$XXXX#OOO",
"$XXXXXOOO$$$$OOOOOOOO$$$$OX$$$$XX$$$$$O$$$$OOOOOO$$$$OO$XXXXX$$O",
"$XXXX$OOOO$$$$OOOOOOO$$$$XXX$$XXX$$$$$XX$$$$OOO$$$$$OOO$XXXXXX$$",
"$XXX$$OOOOO$$$$OOOOOO$$$XXXX$XXXXX$$$XXX$$$$X$$$$$OOOO$$XXXXXX$$",
"$XXX$$$OOOOO$$$$$$$$X$$$XXX$$XXXXX$$XXXX$$$XX$$$$OOOOO$$$XXXXX$$",
"$XXX$$$OOOOOO$$$$$$$XX$$$XX$$$XXXX$$XXXX$$XXX$$$$OOOOO$$$$XXXX$$",
"$XX$$$$$OOOOO$$$$$$$XXXX$$X$$$$XXX$$XXX$XXXXX$$$OOOOOO$$$$$XXX$$",
"XXX$$$$$$$OOOO$$$$$$XXXXX$$$$$$XX$$$XX$$XXXX$$$$OOOOO$$$$$$$XX$$",
"XX$$$$$$$$$OOO$$$X$$XXXXX$$$$$$oo$$$$$$$XXXX$$$$OOOOO$$$$$$$$X$$",
"X$$$$$$$$$$$$OXXXXX$$XXXX$$$$oooo$$$$$$$XXXX$$$OOOOO$$$$$$$$$XX$",
"X$OO$$$$$$$$$$XXXXXXX$$$oo$$$$ooo$$$$$$.oXX$$X$OOOO$$$$$$$$$$$X$",
"XOOOOOOOO$$$$$$$XXXXXX$$ooo$$ooooo$$$$ooo$$$XXXOO$$$$OOOOOOO$XX$",
"XOOOOOOOOO$$$$$$$XXXX$$$oooooooooooooooo$$XXXXXXX$$$OOOOOOOO$XX$",
"XOOOOOOOOOO$$$$$$$$$$$$$$ooooooooooooooo$$$XXX$$$$$OOOOOOOOO$XX$",
"XOOOOOOOOOOO$$$XXX$$$$$$$oooooooooooooo$$$$$$$$$$$OOOOOOOOOOXXXX",
"XOOOOOOOOOOOO$XXXXXX$$$oooooooooooooooo$$$$XXX$$$$OOOOOOOOOOXXXX",
"XXOOOOOOOOOOOXXXXXXXXXoooooooooooooooooo$$XXXXXXXOOOOOOOOOOOXXXX",
"XOOOOOOOOOOO$XXXXXXX$ooooooooooooooooooooXXXXXXXOOOOOOOOOOOOXXXX",
"XOOOOOOOOOO$$$$XXX$$$$oooooooooooooooooooXXXXXX$$OOOOOOOOOOOXXXX",
"XOOOOOOOOOO$$$$$$$X$$$$ooooooooooooooooo$$$XXX$$$$OOOOOOOOOOXXXX",
"X$OOO$$$$$$$O$$$$XXXX$$$ooooooooooooooo$$XX$$$$$$$OOOOOOOOOOXXX$",
"X$$$$$$$$$OOOOOOOXXXX$$$ooooooooooooooo$$XXXX$$$$$$OOOOOOOOOXXX$",
"X$$$$$$OOOOOOOOOXXXX$$$oooooooooooooooo$$XXXX$$$$$$$$$$$$$$$XX$$",
"XX$$OOOOOOOOOOO$$$$$$$$ooooooooooooooooo$XXXXOOOOOOOO$$$$$$XXX$$",
"XXXOOOOOOOOO$$$$$$$XXXXXo$$$$oooooo$$ooo$$$$XXOOOOOOOOO$$$$XX$$$",
"XXXOOOOOOO$$$$$$$$$XXXX$$$X$$$oooo$$$$$oXXX$$$$OOOOOOOOOO$$XX$$$",
"XXXX$$$$$$$$$$$$$$$XXXX$$XXX$$$oo$$$$$$XXXX$$$$$$OOOOOOOOXXXX$$$",
"XXXX$$$$$$$$OOOOO$OXXX$$XXXX$$$XX$$$X$XXXXXX$$$$$$$OOOOOOXXXX$$$",
"XXXX$$$$$$$OOOOOOOOX$$$$XXXX$$XXXX$XXX$$XXXOOOOOOOO$$$$$$$XXX$$$",
"$XXX$$$$$OOOOOOOOOO$$$$$XXX$$XXXXX$$XX$$$$$OOOOOOOOOO$$$$$$XX$$$",
"$XXXX$$$OOOOOOOOOOO$$$$$XX$$$$XXXX$$XXX$$$$$OOOOOOOOOOO$$$$X$$$$",
"$$XXX$OOOOOOOOOOOOO$$$$$OX$$$$XXX$$$$XX$$$$$OOOOOOOOOOOO$$$X$$$$",
"$$$XXOOOOOOOOOOOOOO$$$OOO$$$$$OO$$$$$XOO$$$$OOOOOOOOOOOOOOXX$$$$",
"$$$XXOOOOOOOOOOOOOO$$OOOO$$$$$OOO$$$$$OOO$$$OOOOOOOOOOOOO@XX$$OO",
"$$$XX#OOOOOOOOOOOO OOOOOO$$$$OOOOO$$$$OOOO$$OOOOOOOOOOOOOXXX$OOO",
"O$$XXXXOOOOOOOOOO$OOOOOOO$$$OOOOOOO$$$OOOOOO$$OOOOOOOOOOXXXXOOOO",
"O$$XXXXXOOOOOOOO$$OOOOOOO$$OOOOOOOO$$$OOOOOO$$$OOOOOOOXXXXXXOOOO",
"O$$XXXXXXOOOOO$$$$OOOOOOO$$OOOOOOOOO$$OOOOOOO$$$OOOOOXXXXXXXOOO$",
"OO$XXXXXXOOOO$$$$$OOOOO$$$OOOOOOOOOO$$OOOOOOO$$$$OOOOXXXXXXOOOO$",
"OO$$XXXXX$OO$$$$$OOOOO$$$$OOOOOOOOOO$$$$$OOOOO$$$$OOOXXXXX$OOOO$",
"OOO$$XXXX$$$$$$$$OOOO$$$$$$OOOOOOOOO$$$$$$$OOO$$$$$XXXXXX$$OOO$$",
"$OOOO$$XXX$$$$$$$OOO$$$$$$OOOOOOOOOO$$$$$$$$XXX$$$XXXXXX$OOO$$$$",
"$$OOOO$$$XX$$$$$$OO$$$$$$$OOOOOOOOOO$$$$$$$$XXXXXXXXXXX$OOO$$$$$",
"$$OOOOO$$XXXX$$XXX$$$$$$$$OOOOOOOOOO$$$$$$$$$XXXXXXXXXOOOOO$$$$$",
"$$$OOOO$$$XXXXXXXX$$$$$$$$OOOOOOOOOO$$$$$$$$$XXXXXXXX$OOOOO$$$$$",
"$$$OOOO$$$$XXXXXXX$$$$$$$$OOOOOOOOOO$$$$$$$$XXXXXXXX$$OOOO$$$$$$",
"$$$OOOOOO$$$XXXXXXXX$$$$$$OOOOOOOOOO$$$$$$XXXXXXXXX$$$OO$$++++++",
"++++$OOOOO$$$XXXXXXXXXXXXXOOOOOOOOOOXXXX$XXXXXXX$$$$$O$$$$$+++++",
"+++$$$$OOOO$$XXXX$$$XXXXXXXXXXXXXXXXXXXXXXX$$$$$$$$OOO$$$$$+++++",
"+++$$$$OOOOO$$$$$$$$$$$XXXXXXXXXXXXXXXX$$$$$$$$$$$OOOO$$$$$$++++",
"++$$$$$OOOOO$$$$$$$$$$$$XXXXXXXXXXXXXX$$$$$$$$$$$OOOO$$$$$$$++++",
"+++$$$$$OOOOO$$$$$$$$$$$$$XXXXXXXXXX$$$$$$$$$$$$OOOOO$$$$$$+++++",
"+++++$$$$OOOO$$$$$$$$$$$$$$$XXXXXXX$$$$$$$$$$$$$OOO$$$$$$+++++++"
};
