/* XPM */
static char *_8ce592550194fafd39eab3dc00e8a71kPuPictTK6CgIbcd[] = {
/* columns rows colors chars-per-pixel */
"64 64 10 1 ",
"  c None",
". c black",
"X c #071013",
"o c #DF7126",
"O c #AA4586",
"+ c #A4778B",
"@ c #BAAAB1",
"# c #C0B298",
"$ c #B6EEA6",
"% c #FFD4D4",
/* pixels */
"####@$$$@@@@XXXXXXXXXX@@@@oooooooooo@@@@@XXXXXXX@@@@$$$$@@@#@@@#",
"###@@$$$XXXXXXXXXXX@@@@@@@oooooooooo@@@@@o@@@ooXXX@@@$$$$@@#####",
"###@$$$@XXXXXX@@@@@o@@@@@@@ooooooooo@@@@oo@@ooooXXXXX@@$$@@@####",
"####$$$XXXXXX@@o@@@ooo@@@@@ooooooooo@@@@oo@@oooooXXXXX@@$$@@@###",
"###$$$@XXXXX@oooo@@@ooo@@@@ooooooooo@@@ooo@oooooooXXXX@@$$$$@###",
"#+$$@@XXXX@@oooooo@@oooo@@@ooooooooo@@oooo@ooooooooXXXX@@$$$@###",
"$$$$@XXX@@@oooooooo@@oooo@@ooooooooo@@ooooooooooooooXXXX@@$$$#@@",
"$$$@XXX@@@oooooooooooooooo@ooooooooo@@ooo@ooooooooooo@XX@@$$$@@@",
"$$$XXXX@@@ooooooooooo@oooo@@ooooooo@@@ooo@oooooooooo@@@XX@@@$$@@",
"@@XXXX@@@@ooooooooooo@@ooo@@@ooooo@@@@ooo@ooooooooo@@@@XX@@@$$$@",
"@@XXXX@@@@@oooooooooo@@@oo@@@@ooo@@@@@oo@@ooooooooo@@@@@XXX@$$$$",
"@XXXXXo@@@@@ooooooooo@@@oo@@@@@o@@@@@@oo@@@ooooooo@@@@@@XXXX%$$$",
"@XXXXXooo@@@@oooooooo@@@@oX@@@@XX@@@@@o@@@@oooooo@@@@oo@XXXXX@@$",
"@XXXX@oooo@@@@ooooooo@@@@XXX@@XXX@@@@@XX@@@@ooo@@@@@ooo@XXXXXX@@",
"@XXX@@ooooo@@@@oooooo@@@XXXX@XXXXX@@@XXX@@@@X@@@@@oooo@@XXXXXX@@",
"@XXX@@@ooooo@@@@@@@@X@@@XXX@@XXXXX@@XXXX@@@XX@@@@ooooo@@@XXXXX@@",
"@XXX@@@oooooo@@@@@@@XX@@@XX@@@XXXX@@XXXX@@XXX@@@@ooooo@@@@XXXX@@",
"@XX@@@@@ooooo@@@@@@@XXXX@@X@@@@XXX@@XXX@XXXXX@@@oooooo@@@@@XXX@@",
"XXX@@@@@@@oooo@@@@@@XXXXX@@@@@@XX@@@XX@@XXXX@@@@ooooo@@@@@@@XX@@",
"XX@@@@@@@@@ooo@@@X@@XXXXX@@@@@@OO@@@@@@@XXXX@@@@ooooo@@@@@@@@X@@",
"X@@@@@@@@@@@@oXXXXX@@XXXX@@@@OOOO@@@@@@@XXXX@@@ooooo@@@@@@@@@XX@",
"X@oo@@@@@@@@@@XXXXXXX@@@OO@@@@OOO@@@@@@.OXX@@X@oooo@@@@@@@@@@@X@",
"Xoooooooo@@@@@@@XXXXXX@@OOO@@OOOOO@@@@OOO@@@XXXoo@@@@ooooooo@XX@",
"Xooooooooo@@@@@@@XXXX@@@OOOOOOOOOOOOOOOO@@XXXXXXX@@@oooooooo@XX@",
"Xoooooooooo@@@@@@@@@@@@@@OOOOOOOOOOOOOOO@@@XXX@@@@@ooooooooo@XX@",
"Xooooooooooo@@@XXX@@@@@@@OOOOOOOOOOOOOO@@@@@@@@@@@ooooooooooXXXX",
"Xoooooooooooo@XXXXXX@@@OOOOOOOOOOOOOOOO@@@@XXX@@@@ooooooooooXXXX",
"XXoooooooooooXXXXXXXXXOOOOOOOOOOOOOOOOOO@@XXXXXXXoooooooooooXXXX",
"Xooooooooooo@XXXXXXX@OOOOOOOOOOOOOOOOOOOOXXXXXXXooooooooooooXXXX",
"Xoooooooooo@@@@XXX@@@@OOOOOOOOOOOOOOOOOOOXXXXXX@@oooooooooooXXXX",
"Xoooooooooo@@@@@@@X@@@@OOOOOOOOOOOOOOOOO@@@XXX@@@@ooooooooooXXXX",
"X@ooo@@@@@@@o@@@@XXXX@@@OOOOOOOOOOOOOOO@@XX@@@@@@@ooooooooooXXX@",
"X@@@@@@@@@oooooooXXXX@@@OOOOOOOOOOOOOOO@@XXXX@@@@@@oooooooooXXX@",
"X@@@@@@oooooooooXXXX@@@OOOOOOOOOOOOOOOO@@XXXX@@@@@@@@@@@@@@@XX@@",
"XX@@ooooooooooo@@@@@@@@OOOOOOOOOOOOOOOOO@XXXXoooooooo@@@@@@XXX@@",
"XXXooooooooo@@@@@@@XXXXXO@@@@OOOOOO@@OOO@@@@XXooooooooo@@@@XX@@@",
"XXXooooooo@@@@@@@@@XXXX@@@X@@@OOOO@@@@@OXXX@@@@oooooooooo@@XX@@@",
"XXXX@@@@@@@@@@@@@@@XXXX@@XXX@@@OO@@@@@@XXXX@@@@@@ooooooooXXXX@@@",
"XXXX@@@@@@@@ooooo@oXXX@@XXXX@@@XX@@@X@XXXXXX@@@@@@@ooooooXXXX@@@",
"XXXX@@@@@@@ooooooooX@@@@XXXX@@XXXX@XXX@@XXXoooooooo@@@@@@@XXX@@@",
"@XXX@@@@@oooooooooo@@@@@XXX@@XXXXX@@XX@@@@@oooooooooo@@@@@@XX@@@",
"@XXXX@@@ooooooooooo@@@@@XX@@@@XXXX@@XXX@@@@@ooooooooooo@@@@X@@@@",
"@@XXX@ooooooooooooo@@@@@oX@@@@XXX@@@@XX@@@@@oooooooooooo@@@X@@@@",
"@@@XXoooooooooooooo@@@ooo@@@@@oo@@@@@Xoo@@@@ooooooooooooooXX@@@@",
"@@@XXoooooooooooooo@@oooo@@@@@ooo@@@@@ooo@@@ooooooooooooo@XX@@$$",
"@@@XX%oooooooooooo oooooo@@@@ooooo@@@@oooo@@oooooooooooooXXX@$$$",
"$@@XXXXoooooooooo@ooooooo@@@ooooooo@@@oooooo@@ooooooooooXXXX$$$$",
"$@@XXXXXoooooooo@@ooooooo@@oooooooo@@@oooooo@@@oooooooXXXXXX$$$$",
"$@@XXXXXXooooo@@@@ooooooo@@ooooooooo@@ooooooo@@@oooooXXXXXXX$$$@",
"$$@XXXXXXoooo@@@@@ooooo@@@oooooooooo@@ooooooo@@@@ooooXXXXXX$$$$@",
"$$@@XXXXX@oo@@@@@ooooo@@@@oooooooooo@@@@@ooooo@@@@oooXXXXX@$$$$@",
"$$$@@XXXX@@@@@@@@oooo@@@@@@ooooooooo@@@@@@@ooo@@@@@XXXXXX@@$$$@@",
"@$$$$@@XXX@@@@@@@ooo@@@@@@oooooooooo@@@@@@@@XXX@@@XXXXXX@$$$@@@@",
"@@$$$$@@@XX@@@@@@oo@@@@@@@oooooooooo@@@@@@@@XXXXXXXXXXX@$$$@@@@@",
"@@$$$$$@@XXXX@@XXX@@@@@@@@oooooooooo@@@@@@@@@XXXXXXXXX$$$$$@@@@@",
"@@@$$$$@@@XXXXXXXX@@@@@@@@oooooooooo@@@@@@@@@XXXXXXXX@$$$$$@@@@@",
"@@@$$$$@@@@XXXXXXX@@@@@@@@oooooooooo@@@@@@@@XXXXXXXX@@$$$$@@@@@@",
"@@@$$$$$$@@@XXXXXXXX@@@@@@oooooooooo@@@@@@XXXXXXXXX@@@$$@@######",
"####@$$$$$@@@XXXXXXXXXXXXXooooooooooXXXX@XXXXXXX@@@@@$@@@@@#####",
"###@@@@$$$$@@XXXX@@@XXXXXXXXXXXXXXXXXXXXXXX@@@@@@@@$$$@@@@@#####",
"###@@@@$$$$$@@@@@@@@@@@XXXXXXXXXXXXXXXX@@@@@@@@@@@$$$$@@@@@@####",
"##@@@@@$$$$$@@@@@@@@@@@@XXXXXXXXXXXXXX@@@@@@@@@@@$$$$@@@@@@@####",
"###@@@@@$$$$$@@@@@@@@@@@@@XXXXXXXXXX@@@@@@@@@@@@$$$$$@@@@@@#####",
"#####@@@@$$$$@@@@@@@@@@@@@@@XXXXXXX@@@@@@@@@@@@@$$$@@@@@@#######"
};
